<?xml version="1.0" standalone="no"?>
<!DOCTYPE svg PUBLIC "-//W3C//DTD SVG 1.1//EN" "http://www.w3.org/Graphics/SVG/1.1/DTD/svg11.dtd" >
<svg xmlns="http://www.w3.org/2000/svg" xmlns:xlink="http://www.w3.org/1999/xlink" version="1.1">
<metadata></metadata>
<defs>
<font id="nunito_sanslight_italic" horiz-adv-x="1228" >
<font-face units-per-em="2048" ascent="1638" descent="-410" />
<missing-glyph horiz-adv-x="516" />
<glyph unicode="&#xfb01;" horiz-adv-x="1093" d="M47 893l8 100h197l4 54q14 197 113.5 292t296.5 105l75 4v-102l-94 -7q-129 -8 -191.5 -74.5t-72.5 -203.5l-6 -68h592l-78 -993h-125l72 893h-467l-72 -893h-125l70 893h-197zM842 1253l14 162h168l-12 -162h-170z" />
<glyph unicode="&#xfb02;" horiz-adv-x="1099" d="M47 893l8 100h197l4 54q14 197 113.5 292t296.5 105l75 4l2 -102l-96 -7q-129 -8 -191.5 -74.5t-72.5 -203.5l-6 -68h291l-6 -100h-291l-72 -893h-125l70 893h-197zM770 0l115 1444h125l-115 -1444h-125z" />
<glyph horiz-adv-x="0" />
<glyph unicode="&#xd;" horiz-adv-x="516" />
<glyph horiz-adv-x="0" />
<glyph horiz-adv-x="0" />
<glyph unicode=" "  horiz-adv-x="516" />
<glyph unicode="&#x09;" horiz-adv-x="516" />
<glyph unicode="&#xa0;" horiz-adv-x="516" />
<glyph unicode="!" horiz-adv-x="450" d="M100 0l13 176h174l-13 -176h-174zM174 354l45 1090h158l-125 -1090h-78z" />
<glyph unicode="&#x22;" horiz-adv-x="835" d="M207 889l8 555h152l-76 -555h-84zM608 889l8 555h152l-76 -555h-84z" />
<glyph unicode="#" d="M53 381l8 102h220l135 494h-275l9 102h294l99 365h108l-100 -365h356l101 365h106l-98 -365h196l-8 -102h-217l-135 -494h272l-8 -102h-291l-104 -381h-109l105 381h-357l-104 -381h-106l104 381h-201zM389 483h356l136 494h-357z" />
<glyph unicode="$" d="M80 178l61 101q102 -98 211 -140.5t256 -42.5q176 0 272.5 76t96.5 211q0 74 -46 121t-114.5 75.5t-187.5 65.5q-143 43 -233.5 84t-153 117t-62.5 196q0 121 59.5 214.5t167 147.5t246.5 56l19 219h112l-18 -223q258 -29 399 -184l-63 -101q-80 90 -187.5 133.5 t-252.5 43.5q-162 0 -256.5 -80t-94.5 -217q0 -84 50.5 -138.5t122 -85t198.5 -71.5q139 -43 223 -81t142.5 -106.5t58.5 -177.5q0 -174 -123 -285.5t-332 -121.5l-16 -220h-115l17 220q-291 23 -457 194z" />
<glyph unicode="%" horiz-adv-x="1890" d="M164 967q0 231 94 362t260 131q162 0 247 -99t85 -292q0 -231 -94 -361t-260 -130q-160 0 -246 100t-86 289zM285 952q0 -141 51 -208.5t160 -67.5q112 0 172.5 104.5t60.5 302.5q0 143 -52 212t-159 69q-115 0 -174 -105.5t-59 -306.5zM432 12l971 1479l92 -59 l-973 -1479zM1079 373q0 233 93.5 364t261.5 131q162 0 245.5 -99t83.5 -292q0 -231 -93 -361t-261 -130q-160 0 -245 99t-85 288zM1200 360q0 -143 51.5 -209.5t159.5 -66.5q113 0 172 104.5t59 303.5q0 143 -51 210.5t-157 67.5q-115 0 -174.5 -104.5t-59.5 -305.5z" />
<glyph unicode="&#x26;" horiz-adv-x="1343" d="M119 354q0 131 81 236.5t265 218.5h1t1 2q-100 115 -137 187.5t-37 154.5q0 137 92 221t244 84q141 0 224 -75.5t83 -204.5q0 -106 -63.5 -189.5t-237.5 -197.5l366 -416q96 188 103 463h117q-12 -334 -144 -549l256 -289h-149l-172 195q-86 -100 -199 -154.5t-246 -54.5 q-131 0 -233.5 46t-158.5 130t-56 192zM242 356q0 -121 89 -192.5t240 -71.5q226 0 369 184l-401 453h-2q-162 -102 -228.5 -185t-66.5 -188zM418 1153q0 -66 29.5 -123t117.5 -160q147 94 200.5 159t53.5 140q0 84 -52 134.5t-136 50.5q-96 0 -154.5 -55.5t-58.5 -145.5z " />
<glyph unicode="'" horiz-adv-x="432" d="M207 889l8 555h152l-76 -555h-84z" />
<glyph unicode="(" horiz-adv-x="608" d="M213 377q0 295 79 572.5t230 518.5l88 -41q-135 -258 -202.5 -519t-67.5 -539q0 -356 129 -727l-92 -33q-164 381 -164 768z" />
<glyph unicode=")" horiz-adv-x="608" d="M4 -350q135 258 203.5 520t68.5 539q0 356 -129 727l93 32q164 -381 163 -768q0 -295 -79.5 -571t-231.5 -520z" />
<glyph unicode="*" horiz-adv-x="919" d="M119 1049v102l317 -10l-166 268l88 53l152 -278l149 278l86 -53l-163 -268l315 10v-102l-315 8l163 -269l-86 -51l-149 279l-152 -279l-88 51l166 269z" />
<glyph unicode="+" d="M117 528l8 105h448l37 448h103l-37 -448h448l-8 -105h-448l-35 -446h-103l35 446h-448z" />
<glyph unicode="," horiz-adv-x="450" d="M88 -166q80 80 94 166h-82l13 176h174l-11 -135q-6 -78 -34.5 -139.5t-91.5 -118.5z" />
<glyph unicode="-" horiz-adv-x="862" d="M152 492l10 106h555l-8 -106h-557z" />
<glyph unicode="." horiz-adv-x="450" d="M100 0l13 176h174l-13 -176h-174z" />
<glyph unicode="/" horiz-adv-x="550" d="M-84 -84l645 1618l107 -41l-648 -1618z" />
<glyph unicode="0" d="M131 612q0 266 62.5 457t181.5 291t284 100q233 0 354.5 -159.5t121.5 -469.5q0 -403 -139.5 -625t-391.5 -222q-231 0 -352 159.5t-121 468.5zM262 590q0 -252 85 -373t261 -121q195 0 295.5 191.5t100.5 566.5q0 252 -84 373t-261 121q-195 0 -296 -191.5t-101 -566.5z " />
<glyph unicode="1" d="M242 0l10 111h315l97 1167l-271 -166l-59 98l373 234h94l-107 -1333h322l-10 -111h-764z" />
<glyph unicode="2" d="M145 0l9 94l559 570q133 135 187 233t54 205q0 113 -72.5 180.5t-193.5 67.5q-117 0 -222.5 -42t-211.5 -132l-43 100q90 86 217 135t260 49q180 0 286.5 -96t106.5 -260q0 -131 -65.5 -251t-220.5 -278l-467 -464h739l-10 -111h-912z" />
<glyph unicode="3" d="M102 170l60 100q102 -90 203.5 -132t216.5 -42q162 0 255 82t93 232q0 268 -336 268h-154l11 110h141q166 0 264 87.5t98 236.5q0 109 -73.5 173.5t-196.5 64.5q-115 0 -219.5 -42t-210.5 -132l-43 100q90 86 218 135t261 49q178 0 284.5 -94t106.5 -252 q0 -127 -72.5 -229.5t-197.5 -147.5q117 -30 181.5 -114t64.5 -209q0 -129 -58.5 -225.5t-168 -149.5t-255.5 -53q-137 0 -257.5 47t-215.5 137z" />
<glyph unicode="4" d="M100 328l9 96l784 1020h104l-79 -1008h225l-10 -108h-224l-26 -328h-125l26 328h-684zM254 436h539l61 781z" />
<glyph unicode="5" d="M152 170l61 100q100 -88 201.5 -131t210.5 -43q166 0 264 103.5t98 275.5q0 141 -85 226t-224 85q-231 0 -359 -186h-96l66 844h848l-9 -109h-720l-46 -567q59 61 145.5 95t180.5 34q127 0 224.5 -52t150.5 -146.5t53 -217.5q0 -145 -62.5 -257.5t-175 -175t-257.5 -62.5 q-133 0 -253 47t-216 137z" />
<glyph unicode="6" horiz-adv-x="1226" d="M137 600q0 260 73 454.5t206 300t311 105.5q125 0 239.5 -47t211.5 -137l-62 -100q-190 174 -387 174t-316.5 -165t-144.5 -472l-6 -74q55 119 161.5 188.5t242.5 69.5q133 0 235.5 -54.5t157.5 -153.5t55 -228q0 -137 -60.5 -246t-168 -170t-240.5 -61 q-244 0 -376 159.5t-132 456.5zM299 426q0 -150 95 -241t251 -91q152 0 246 101.5t94 265.5q0 147 -91 236t-243 89q-100 0 -181 -46t-126 -129t-45 -185z" />
<glyph unicode="7" d="M217 1333l8 111h928l-6 -92l-782 -1352h-136l775 1333h-787z" />
<glyph unicode="8" d="M96 371q0 131 81 233.5t220 138.5q-104 39 -159.5 121t-55.5 197q0 119 60.5 209t172 140t259.5 50q219 0 340 -95t121 -259q0 -133 -72 -231.5t-195 -139.5q246 -76 246 -348q0 -121 -62.5 -211t-179 -139t-274.5 -49q-244 0 -373 98t-129 285zM225 371q0 -272 367 -273 q188 0 290.5 76t102.5 215q0 150 -87 218.5t-286 68.5q-387 0 -387 -305zM311 1053q0 -125 87 -196t251 -71q172 0 264.5 82t92.5 226q0 123 -84 189.5t-250 66.5q-174 0 -267.5 -78t-93.5 -219z" />
<glyph unicode="9" d="M90 168l60 100q193 -174 389 -174q197 0 316.5 165t143.5 472l7 74q-53 -119 -161 -188.5t-243 -69.5q-133 0 -235.5 54t-157.5 153.5t-55 228.5q0 137 60 245.5t167.5 170t241.5 61.5q243 0 375 -159.5t132 -456.5q0 -260 -72.5 -454.5t-205.5 -300t-311 -105.5 q-125 0 -241 47t-210 137zM283 983q0 -147 91 -236.5t242 -89.5q101 0 182 46.5t126 129t45 185.5q0 150 -95.5 241t-250.5 91q-152 0 -246 -101.5t-94 -265.5z" />
<glyph unicode=":" horiz-adv-x="450" d="M100 0l13 176h174l-13 -176h-174zM164 819l14 174h174l-14 -174h-174z" />
<glyph unicode=";" horiz-adv-x="450" d="M88 -166q80 80 94 166h-82l13 176h174l-11 -135q-6 -78 -34.5 -139.5t-91.5 -118.5zM164 819l14 174h174l-14 -174h-174z" />
<glyph unicode="&#x3c;" d="M119 530l6 103l1036 463l-8 -115l-903 -399l840 -402l-9 -112z" />
<glyph unicode="=" d="M102 324l7 104h999l-6 -104h-1000zM133 733l8 105h1000l-8 -105h-1000z" />
<glyph unicode="&#x3e;" d="M82 68l8 112l901 402l-837 399l8 115l962 -463l-6 -103z" />
<glyph unicode="?" horiz-adv-x="892" d="M63 1276q90 86 215 135t250 49q168 0 264.5 -78.5t96.5 -210.5q0 -82 -29 -149.5t-68.5 -119.5t-113.5 -132q-102 -109 -158.5 -192.5t-75.5 -196.5l-6 -27h-76l3 35q6 94 38.5 172t73.5 133.5t109 132.5q88 100 130 170t42 162q0 88 -63.5 139.5t-174.5 51.5 q-207 0 -414 -174zM287 0l14 176h174l-14 -176h-174z" />
<glyph unicode="@" horiz-adv-x="1888" d="M115 563q0 266 112.5 468t309 312.5t438.5 110.5q262 0 447.5 -109.5t278.5 -280.5t93 -357q0 -207 -61.5 -336t-153.5 -184.5t-193 -55.5q-111 0 -172 48t-63 136h-4q-49 -84 -130 -134t-183 -50q-129 0 -213 93t-84 261q0 137 54 260t152.5 199t227.5 76q100 0 174 -49 t94 -125h2l25 147h108l-98 -573q-6 -39 -6 -70q0 -70 33.5 -98.5t101.5 -28.5q63 0 127.5 47t109 156t44.5 281q0 158 -79 305t-240 242.5t-392 95.5q-213 0 -384 -96.5t-269.5 -274.5t-98.5 -416q0 -231 90 -404t260 -267.5t404 -94.5q176 0 309 54.5t205 148.5h145 q-88 -143 -261 -225t-398 -82q-260 0 -455.5 108.5t-301 306t-105.5 455.5zM643 494q0 -129 61.5 -200t151.5 -71q109 0 187.5 65.5t120.5 169t42 218.5q0 121 -60.5 185.5t-164.5 64.5q-102 0 -179 -62.5t-118 -162t-41 -207.5z" />
<glyph unicode="A" horiz-adv-x="1474" d="M14 0l740 1444h114l514 -1444h-129l-135 385h-776l-195 -385h-133zM397 496h682l-278 796z" />
<glyph unicode="B" horiz-adv-x="1372" d="M147 0l113 1444h537q223 0 339.5 -91t116.5 -261q0 -129 -67.5 -221.5t-196.5 -135.5q121 -30 182.5 -112t61.5 -205q0 -199 -128 -308.5t-360 -109.5h-598zM283 109h462q177 0 269 74.5t92 224.5q0 270 -336 270h-442zM336 788h432q170 0 264 77t94 222q0 248 -333 248 h-414z" />
<glyph unicode="C" horiz-adv-x="1386" d="M147 659q0 242 83 423.5t237 279.5t362 98q160 0 290 -48t220 -140l-61 -98q-98 92 -202.5 133t-250.5 41q-170 0 -293.5 -83t-188 -239t-64.5 -369q0 -268 129 -414.5t366 -146.5q244 0 434 176l45 -100q-201 -188 -505 -188q-181 0 -317 80.5t-210 233.5t-74 361z" />
<glyph unicode="D" horiz-adv-x="1497" d="M147 0l113 1444h455q324 0 497.5 -172t173.5 -488q0 -244 -84.5 -420t-246.5 -270t-391 -94h-517zM283 111h376q293 0 443.5 175t150.5 500q0 547 -542 547h-332z" />
<glyph unicode="E" horiz-adv-x="1185" d="M147 0l113 1444h891l-6 -109h-766l-43 -547h725l-10 -110h-723l-45 -569h766l-11 -109h-891z" />
<glyph unicode="F" horiz-adv-x="1132" d="M147 0l113 1444h870l-6 -109h-745l-43 -547h704l-10 -110h-702l-54 -678h-127z" />
<glyph unicode="G" horiz-adv-x="1472" d="M145 639q0 248 87 433t247 285.5t375 100.5q303 0 496 -186l-62 -101q-104 94 -205.5 135.5t-228.5 41.5q-180 0 -310 -84t-199 -242t-69 -375q0 -266 131.5 -409.5t389.5 -143.5q90 0 187 17.5t177 48.5l37 473h-381l8 106h496l-51 -657q-90 -43 -222.5 -70.5 t-250.5 -27.5q-315 0 -483.5 173t-168.5 482z" />
<glyph unicode="H" horiz-adv-x="1544" d="M147 0l113 1444h127l-51 -656h919l52 656h125l-113 -1444h-125l53 678h-921l-54 -678h-125z" />
<glyph unicode="I" horiz-adv-x="499" d="M147 0l113 1444h127l-113 -1444h-127z" />
<glyph unicode="J" horiz-adv-x="636" d="M-49 94l112 8q229 18 252 275l82 1067h127l-84 -1069q-27 -354 -370 -379l-117 -8z" />
<glyph unicode="K" horiz-adv-x="1255" d="M147 0l113 1444h127l-51 -664l778 664h176l-837 -705l768 -739h-160l-733 696l-54 -696h-127z" />
<glyph unicode="L" horiz-adv-x="1091" d="M147 0l113 1444h127l-104 -1333h745l-8 -111h-873z" />
<glyph unicode="M" horiz-adv-x="1720" d="M147 0l115 1444h107l483 -1092l649 1092h107l-113 -1444h-121l96 1188l-581 -961h-94l-433 959l-94 -1186h-121z" />
<glyph unicode="N" horiz-adv-x="1505" d="M147 0l113 1444h102l816 -1227l96 1227h119l-113 -1444h-98l-817 1235l-99 -1235h-119z" />
<glyph unicode="O" horiz-adv-x="1550" d="M147 659q0 242 82 423.5t231.5 279.5t348.5 98q195 0 336 -81t217 -233.5t76 -361.5q0 -242 -81 -423t-231.5 -279t-351.5 -98q-192 0 -333.5 80.5t-217.5 233.5t-76 361zM279 657q0 -270 129 -414.5t368 -144.5q164 0 284 82t183.5 236.5t63.5 367.5q0 272 -129 417 t-369 145q-164 0 -283.5 -82t-183 -238t-63.5 -369z" />
<glyph unicode="P" horiz-adv-x="1306" d="M147 0l113 1444h535q221 0 338.5 -104.5t117.5 -286.5q0 -221 -135 -333t-373 -112h-421l-48 -608h-127zM330 717h411q383 0 383 332q0 139 -83 212.5t-250 73.5h-414z" />
<glyph unicode="Q" horiz-adv-x="1550" d="M147 659q0 242 82 423.5t231.5 279.5t348.5 98q195 0 336 -81t217 -233.5t76 -361.5q0 -297 -120 -500.5t-345 -269.5q37 -16 67.5 -50t59.5 -91l114 -213l-106 -59l-139 258q-68 121 -234 127q-176 6 -308 87t-206 230.5t-74 355.5zM279 657q0 -270 129 -414.5 t368 -144.5q164 0 284 82t183.5 236.5t63.5 367.5q0 272 -129 417t-369 145q-164 0 -283.5 -82t-183 -238t-63.5 -369z" />
<glyph unicode="R" horiz-adv-x="1396" d="M147 0l113 1444h567q219 0 337 -96.5t118 -280.5t-101.5 -293.5t-297.5 -130.5q49 -16 85 -55t64 -105l219 -483h-137l-207 463q-41 94 -105.5 129t-176.5 35h-301l-50 -627h-127zM332 735h446q190 0 284.5 79t94.5 245q0 141 -83 208.5t-249 67.5h-446z" />
<glyph unicode="S" horiz-adv-x="1243" d="M76 172l59 100q111 -94 225.5 -136t257.5 -42q190 0 291 74t101 205q0 78 -48.5 129t-122 79.5t-196.5 63.5q-154 43 -248 83t-159.5 120t-65.5 211q0 121 63.5 212t181 140t275.5 49q150 0 279 -49t223 -139l-62 -101q-197 178 -440 179q-190 0 -290.5 -76t-100.5 -211 q0 -88 52 -145.5t130 -88t207 -67.5q150 -43 239 -81t150.5 -110.5t61.5 -191.5q0 -182 -140.5 -288.5t-380.5 -106.5q-169 0 -300.5 46t-241.5 142z" />
<glyph unicode="T" horiz-adv-x="1208" d="M92 1333l8 111h1160l-9 -111h-518l-104 -1333h-125l104 1333h-516z" />
<glyph unicode="U" horiz-adv-x="1474" d="M178 479q0 25 4 78l68 887h127l-70 -881q-2 -25 -2 -69q0 -397 402 -398q219 0 335.5 109.5t133.5 335.5l69 903h125l-70 -889q-23 -287 -172 -429t-421 -142q-261 0 -395 128t-134 367z" />
<glyph unicode="V" horiz-adv-x="1392" d="M88 1444h131l451 -1284l651 1284h131l-737 -1444h-115z" />
<glyph unicode="W" horiz-adv-x="2244" d="M150 1444h126l334 -1266l539 1266l98 -2l334 -1262l537 1264h125l-615 -1444h-110l-336 1245l-533 -1245h-108z" />
<glyph unicode="X" horiz-adv-x="1306" d="M-6 0l606 743l-463 701h148l395 -606l487 606h152l-576 -705l492 -739h-150l-417 643l-523 -643h-151z" />
<glyph unicode="Y" horiz-adv-x="1210" d="M57 1444h142l426 -645l528 645h145l-616 -754l-55 -690h-125l55 692z" />
<glyph unicode="Z" horiz-adv-x="1196" d="M49 0l8 92l955 1243h-856l8 109h1010l-7 -92l-954 -1243h879l-11 -109h-1032z" />
<glyph unicode="[" horiz-adv-x="608" d="M160 -369l143 1813h367l-6 -103h-246l-127 -1607h246l-9 -103h-368z" />
<glyph unicode="\" horiz-adv-x="550" d="M39 1505l115 29l391 -1630l-115 -29z" />
<glyph unicode="]" horiz-adv-x="608" d="M-55 -369l6 103h246l127 1607h-246l8 103h369l-144 -1813h-366z" />
<glyph unicode="^" d="M86 287l541 999h100l383 -999h-109l-333 866l-469 -866h-113z" />
<glyph unicode="_" horiz-adv-x="1024" d="M-35 -88l8 88h1000l-6 -88h-1002z" />
<glyph unicode="`" horiz-adv-x="614" d="M79 1538h148l176 -412h-94z" />
<glyph unicode="a" horiz-adv-x="1077" d="M115 270q0 111 59 177.5t192.5 96t360.5 29.5h72l6 70q2 16 2 45q0 115 -53.5 168t-167.5 53q-174 0 -342 -108l-41 98q74 53 181.5 86t205.5 33q340 0 340 -328q0 -33 -2 -51l-51 -639h-123l14 170q-49 -90 -131 -137t-184 -47q-150 0 -244 79.5t-94 204.5zM246 279 q0 -84 61.5 -134.5t165.5 -50.5q127 0 215 87t98 227l7 73h-60q-201 0 -305 -20.5t-143 -63.5t-39 -118z" />
<glyph unicode="b" horiz-adv-x="1173" d="M125 0l115 1444h125l-50 -608q49 86 139.5 134t196.5 48q125 0 221.5 -59.5t149.5 -168t53 -253.5q0 -164 -58.5 -289t-163.5 -193.5t-243 -68.5q-121 0 -211 54t-133 150l-16 -190h-125zM287 461q0 -178 83 -271.5t236 -93.5q158 0 249 119t91 326q0 174 -84 271 t-235 97q-158 0 -249 -119.5t-91 -328.5z" />
<glyph unicode="c" horiz-adv-x="972" d="M100 465q0 166 59.5 291t171 193.5t261.5 68.5q106 0 198.5 -35t157.5 -96l-55 -99q-78 63 -148.5 92t-154.5 29q-170 0 -264.5 -118.5t-94.5 -329.5q0 -170 85 -267.5t241 -97.5q80 0 146.5 28t144.5 91l41 -96q-63 -61 -153.5 -97t-190.5 -36q-133 0 -234.5 59 t-156 168t-54.5 252z" />
<glyph unicode="d" horiz-adv-x="1173" d="M100 465q0 164 58.5 290t164 194.5t242.5 68.5q121 0 211 -52.5t133 -148.5l49 627h125l-112 -1444h-125l14 170q-51 -86 -140 -135t-196 -49q-125 0 -221 59t-149.5 168t-53.5 252zM231 467q0 -178 83 -274.5t235 -96.5q158 0 249 120t91 327q0 178 -83 272t-237 94 q-158 0 -248 -117.5t-90 -324.5z" />
<glyph unicode="e" horiz-adv-x="1077" d="M100 465q0 164 59.5 289t170 194.5t258.5 69.5q186 0 293.5 -110.5t107.5 -325.5q0 -47 -6 -101h-754v-20q0 -172 86 -268.5t248 -96.5q195 0 334 119l41 -96q-61 -61 -165.5 -97t-213.5 -36q-213 0 -336 130t-123 349zM238 573h636v24q0 150 -70 231q-76 87 -210 87 q-152 0 -243 -89t-113 -253z" />
<glyph unicode="f" horiz-adv-x="645" d="M47 893l8 100h197l4 54q14 197 113.5 292t296.5 105l75 4l2 -102l-96 -7q-129 -8 -191.5 -74.5t-72.5 -203.5l-6 -68h291l-6 -100h-291l-72 -893h-125l70 893h-197z" />
<glyph unicode="g" horiz-adv-x="1181" d="M102 489q0 158 57.5 278t164 185.5t245.5 65.5q123 0 214 -53.5t135 -149.5l14 178h125l-74 -936q-33 -440 -451 -440q-246 0 -428 137l56 99q102 -70 185 -97.5t190 -27.5q301 0 325 323l14 168q-47 -90 -138 -139t-201 -49q-197 0 -315 125t-118 333zM233 485 q0 -168 83 -256t239 -88q160 0 251 112t91 308q0 166 -85 257t-237 91q-162 0 -252 -112.5t-90 -311.5z" />
<glyph unicode="h" horiz-adv-x="1148" d="M125 0l115 1444h125l-50 -608q51 88 140.5 135t201.5 47q166 0 254 -84t88 -250q0 -37 -2 -55l-49 -629h-125l49 621q2 16 2 47q0 239 -235 239h-2q-152 0 -241 -88t-101 -244l-45 -575h-125z" />
<glyph unicode="i" horiz-adv-x="454" d="M125 0l78 993h125l-78 -993h-125zM205 1255l13 158h163l-12 -158h-164z" />
<glyph unicode="j" horiz-adv-x="454" d="M-215 -274l90 6q121 10 180.5 69.5t67.5 184.5l80 1007h125l-78 -991q-14 -182 -103.5 -271t-267.5 -100l-90 -6zM205 1255l13 158h163l-12 -158h-164z" />
<glyph unicode="k" horiz-adv-x="991" d="M125 0l115 1444h125l-72 -912l524 461h168l-551 -479l527 -514h-162l-510 492l-39 -492h-125z" />
<glyph unicode="l" horiz-adv-x="454" d="M125 0l115 1444h125l-115 -1444h-125z" />
<glyph unicode="m" horiz-adv-x="1726" d="M125 0l78 993h123l-13 -157q98 182 316 182q238 0 297 -191q49 90 139 140.5t203 50.5q153 0 232 -84t79 -246q0 -39 -2 -59l-49 -629h-125l49 621q2 20 2 55q0 119 -51 175t-160 56q-137 0 -217 -87t-92 -247l-45 -573h-125l49 621q2 20 2 55q0 119 -51 175t-160 56 q-137 0 -217 -87t-92 -247l-45 -573h-125z" />
<glyph unicode="n" horiz-adv-x="1148" d="M125 0l78 993h123l-13 -162q51 88 140.5 137.5t203.5 49.5q166 0 254 -84t88 -250q0 -37 -2 -55l-49 -629h-125l49 621q2 16 2 47q0 239 -235 239h-2q-152 0 -241 -88t-101 -244l-45 -575h-125z" />
<glyph unicode="o" horiz-adv-x="1116" d="M100 465q0 166 58.5 291t166 193.5t246.5 68.5q135 0 236.5 -59.5t156 -168t54.5 -253.5q0 -164 -58.5 -289t-166 -193.5t-248.5 -68.5q-133 0 -234.5 59t-156 168t-54.5 252zM231 459q0 -176 82 -269.5t238 -93.5q158 0 248 120t90 327q0 174 -84 270t-234 96 q-160 0 -250 -119.5t-90 -330.5z" />
<glyph unicode="p" horiz-adv-x="1173" d="M96 -369l107 1362h125l-13 -157q49 86 139.5 134t196.5 48q125 0 221.5 -59.5t149.5 -168t53 -253.5q0 -164 -58.5 -289t-163.5 -193.5t-243 -68.5q-121 0 -211 54t-133 150l-45 -559h-125zM287 461q0 -178 83 -271.5t236 -93.5q158 0 249 119t91 326q0 174 -84 271 t-235 97q-158 0 -249 -119.5t-91 -328.5z" />
<glyph unicode="q" horiz-adv-x="1173" d="M98 467q0 164 58.5 289t164 193.5t242.5 68.5q121 0 212 -54.5t134 -150.5l15 180h125l-109 -1362h-125l43 537q-49 -86 -139 -134t-197 -48q-125 0 -221 59t-149.5 168t-53.5 254zM229 463q0 -174 83 -270.5t235 -96.5q158 0 249 120t91 327q0 178 -83 272t-237 94 q-158 0 -248 -118.5t-90 -327.5z" />
<glyph unicode="r" horiz-adv-x="694" d="M125 0l78 993h123l-13 -166q51 88 135 132.5t216 54.5l51 4v-109l-88 -8q-156 -14 -237 -94t-93 -225l-47 -582h-125z" />
<glyph unicode="s" horiz-adv-x="978" d="M74 119l55 96q82 -63 159 -92t173 -29q264 0 264 166q0 53 -33 87t-82 53.5t-133 43.5q-104 31 -167.5 58.5t-108.5 82t-45 142.5q0 135 103 213t278 78q104 0 195 -35t151 -96l-54 -96q-136 118 -287 118h-3q-123 0 -188.5 -45t-65.5 -131q0 -53 32.5 -86t78.5 -52.5 t134 -45.5q102 -29 167 -56.5t110 -83t45 -143.5q0 -129 -107.5 -204.5t-285.5 -75.5q-111 0 -212.5 34.5t-172.5 98.5z" />
<glyph unicode="t" horiz-adv-x="669" d="M47 893l8 100h197l24 307h125l-24 -307h291l-6 -100h-293l-43 -543q-2 -14 -2 -41q0 -106 54 -161.5t159 -55.5q49 0 88 8l-15 -104q-41 -8 -90 -8q-154 0 -237.5 79.5t-83.5 227.5q0 29 2 45l43 553h-197z" />
<glyph unicode="u" horiz-adv-x="1132" d="M147 322q0 35 3 53l49 618h125l-50 -608q-2 -16 -2 -49q0 -240 232 -240q145 0 233 88t101 246l45 563h125l-80 -993h-121l12 174q-51 -90 -138 -139t-196 -49q-164 0 -251 85t-87 251z" />
<glyph unicode="v" horiz-adv-x="1042" d="M72 993h129l291 -866l426 866h131l-504 -993h-127z" />
<glyph unicode="w" horiz-adv-x="1712" d="M104 993h129l230 -846l371 846h122l234 -841l362 841h134l-441 -993h-129l-235 831l-365 -831h-129z" />
<glyph unicode="x" horiz-adv-x="1048" d="M0 0l451 514l-351 479h156l274 -387l340 387h156l-424 -483l369 -510h-154l-297 420l-364 -420h-156z" />
<glyph unicode="y" horiz-adv-x="1042" d="M72 993h129l291 -866l426 866h131l-693 -1362h-127l189 371z" />
<glyph unicode="z" horiz-adv-x="1021" d="M61 0l7 86l716 807h-626l6 100h784l-6 -94l-706 -797h665l-8 -102h-832z" />
<glyph unicode="{" horiz-adv-x="684" d="M104 489l7 99l51 2q84 6 119.5 45t42.5 123l36 495q10 92 60.5 141.5t140.5 49.5h184l-6 -103h-155q-90 0 -99 -94l-39 -502q-8 -88 -53 -140t-108 -66q61 -14 99 -66.5t30 -140.5l-39 -504q-6 -94 80 -94h157l-8 -103h-162q-104 0 -152 49.5t-40 141.5l37 497q2 12 2 37 q0 63 -32 94t-105 35z" />
<glyph unicode="|" horiz-adv-x="518" d="M127 -369l143 1813h125l-143 -1813h-125z" />
<glyph unicode="}" horiz-adv-x="684" d="M-55 -369l6 103h155q92 0 99 94l39 504q6 88 53 140t109 67q-59 14 -96.5 66t-30.5 140l36 502q8 94 -82 94h-155l8 103h162q209 0 192 -191l-39 -495q-6 -84 24 -123t114 -45l47 -2l-6 -99l-50 -4q-82 -4 -118.5 -43t-44.5 -123l-37 -497q-10 -92 -60.5 -141.5 t-142.5 -49.5h-182z" />
<glyph unicode="~" d="M117 522q98 195 274 195q66 0 126.5 -24.5t144.5 -71.5q68 -39 109.5 -56.5t80.5 -17.5q68 0 113 37t77 100l84 -43q-100 -195 -276 -195q-66 0 -124 24t-146 73q-66 37 -108 55t-81 18q-125 0 -190 -139z" />
<glyph unicode="&#xa1;" horiz-adv-x="450" d="M78 -369l119 1008h77l-38 -1008h-158zM164 819l14 174h174l-14 -174h-174z" />
<glyph unicode="&#xa2;" d="M195 465q0 236 116.5 383t319.5 168l18 223h113l-17 -223q176 -18 297 -129l-55 -99q-78 63 -149.5 92t-153.5 29q-172 0 -265 -118.5t-93 -329.5q0 -170 85 -267.5t240 -97.5q80 0 146.5 28t144.5 91l41 -96q-61 -59 -144 -94t-177 -39l-17 -222h-113l17 230 q-164 29 -259 153.5t-95 317.5z" />
<glyph unicode="&#xa3;" d="M61 0l11 111h215l45 561h-217l8 102h217l22 285q16 188 126 294.5t288 106.5q121 0 233.5 -49t200.5 -139l-63 -101q-78 84 -174 131.5t-195 47.5q-129 0 -204.5 -75t-86.5 -214l-22 -287h381l-8 -102h-381l-45 -561h700l-8 -111h-1043z" />
<glyph unicode="&#xa4;" d="M119 74l112 112q-106 139 -106 316q0 176 104 313l-110 115l80 82l110 -115q63 53 143 83t166 30q168 0 304 -109l106 111l82 -82l-109 -111q52 -65 80.5 -147t28.5 -170t-28.5 -170t-80.5 -148l109 -110l-82 -82l-106 110q-135 -109 -304 -108q-86 0 -165.5 29.5 t-143.5 82.5l-110 -114zM242 502q0 -109 50 -201t136 -145.5t188 -53.5q103 0 189 53.5t136 145.5t50 201t-50 201t-136 145t-189 53q-102 0 -188 -53t-136 -145.5t-50 -200.5z" />
<glyph unicode="&#xa5;" d="M74 1444h145l416 -651l522 651h146l-537 -666h334l-8 -102h-400l-16 -205h399l-8 -102h-399l-29 -369h-127l31 369h-402l9 102h401l16 205h-401l8 102h334z" />
<glyph unicode="&#xa6;" horiz-adv-x="518" d="M129 -369l53 684h125l-53 -684h-125zM217 760l53 684h125l-53 -684h-125z" />
<glyph unicode="&#xa7;" horiz-adv-x="1073" d="M74 -250l57 96q90 -66 167 -92t175 -26q125 0 194.5 66.5t69.5 182.5q0 80 -42 138.5t-138 115.5l-170 101q-150 88 -215.5 169t-65.5 185q0 84 36 161t96 124q-18 53 -19 114q0 170 108.5 271.5t282.5 101.5q96 0 191.5 -37t154.5 -96l-53 -96q-74 63 -145.5 92 t-157.5 29q-117 0 -186.5 -70t-69.5 -184q0 -78 41 -134.5t137 -113.5l170 -103q152 -92 217.5 -174t65.5 -186q0 -76 -37 -149.5t-98 -124.5q20 -53 20 -119q0 -172 -105.5 -272.5t-281.5 -100.5q-119 0 -215 32t-184 99zM229 698q0 -66 48.5 -124t160.5 -128l160 -98 q129 -78 186 -147q66 78 66 180q0 68 -47 123t-162 127l-160 98q-123 76 -186 148q-66 -76 -66 -179z" />
<glyph unicode="&#xa8;" horiz-adv-x="614" d="M120 1260l13 149h153l-12 -149h-154zM460 1260l13 149h153l-12 -149h-154z" />
<glyph unicode="&#xa9;" horiz-adv-x="1669" d="M102 723q0 205 96.5 372t264.5 263t373 96t371.5 -96t263 -263t96.5 -372t-96.5 -372t-264.5 -264t-370 -97q-205 0 -372 97t-264.5 264t-97.5 372zM188 723q0 -182 85 -330.5t233.5 -234.5t329.5 -86q180 0 327.5 86t232.5 234.5t85 330.5t-85 330.5t-232.5 233.5 t-327.5 85t-329 -85t-234 -233.5t-85 -330.5zM440 723q0 203 109.5 321.5t298.5 118.5q84 0 165 -29.5t138 -82.5l-43 -88q-66 53 -127 77.5t-129 24.5q-137 0 -212 -89t-75 -253t75 -254t212 -90q68 0 129 24.5t127 77.5l43 -88q-57 -53 -138 -82.5t-165 -29.5 q-189 0 -298.5 118.5t-109.5 323.5z" />
<glyph unicode="&#xaa;" horiz-adv-x="671" d="M111 1012q0 98 82.5 139t281.5 41h41l2 37q8 135 -119 135q-102 0 -202 -66l-31 84q53 35 117.5 53.5t128.5 18.5q106 0 163.5 -54t57.5 -155l-2 -31l-29 -368h-113l9 92q-29 -49 -77 -75.5t-108 -26.5q-88 0 -145 49t-57 127zM225 1018q0 -41 32 -67.5t77 -26.5 q72 0 120 46t54 122l2 32h-35q-141 0 -195.5 -22.5t-54.5 -83.5z" />
<glyph unicode="&#xab;" horiz-adv-x="851" d="M125 510l4 65l217 326l94 -37l-190 -321l135 -324l-94 -35zM471 510l4 65l217 326l94 -37l-190 -321l135 -324l-94 -35z" />
<glyph unicode="&#xac;" d="M135 745l6 103h1000l-41 -533h-101l35 430h-899z" />
<glyph unicode="&#xad;" horiz-adv-x="862" d="M152 492l10 106h555l-8 -106h-557z" />
<glyph unicode="&#xae;" horiz-adv-x="1669" d="M121 723q0 205 96 372t264 263t373 96t372 -96t263 -263t96 -372t-96 -372t-264 -264t-371 -97q-205 0 -372 97t-264 264t-97 372zM207 723q0 -182 85 -330.5t233.5 -234.5t328.5 -86t327.5 86t232.5 234.5t85 330.5t-85 330.5t-232.5 233.5t-327.5 85t-328.5 -85 t-233.5 -233.5t-85 -330.5zM526 291l68 862h328q293 0 292 -238q0 -106 -63.5 -173.5t-179.5 -82.5q59 -20 98 -94l148 -274h-132l-147 274q-27 47 -57.5 64.5t-85.5 17.5h-123l-29 -356h-117zM678 745h227q190 0 191 166q0 80 -45 113t-146 33h-200z" />
<glyph unicode="&#xaf;" horiz-adv-x="614" d="M65 1282l10 104h605l-9 -104h-606z" />
<glyph unicode="&#xb0;" horiz-adv-x="745" d="M133 1159q0 84 39 151.5t105.5 105.5t148.5 38q125 0 209 -84t84 -211q0 -125 -84 -209t-209 -84q-82 0 -148.5 38t-105.5 105.5t-39 149.5zM236 1159q0 -88 53 -143t137 -55t137 55t53 143t-53 144.5t-137 56.5t-137 -56.5t-53 -144.5z" />
<glyph unicode="&#xb1;" d="M76 0l8 104h999l-8 -104h-999zM125 610l6 103h451l28 368h103l-29 -368h446l-6 -103h-450l-29 -368h-102l28 368h-446z" />
<glyph unicode="&#xb2;" horiz-adv-x="778" d="M121 578l6 88l326 330q70 72 100.5 124t30.5 107q0 61 -38 94t-104 33q-57 0 -123.5 -25.5t-121.5 -72.5l-48 84q61 51 139.5 81.5t162.5 30.5q119 0 185 -59t66 -160q0 -74 -38.5 -145.5t-124.5 -153.5l-263 -258h416l-8 -98h-563z" />
<glyph unicode="&#xb3;" horiz-adv-x="778" d="M88 684l59 84q117 -98 240 -98q86 0 136 39t50 117q0 76 -45 109.5t-133 33.5h-104l8 96h88q94 0 146.5 42t52.5 124q0 59 -39 91t-105 32q-57 0 -122.5 -25.5t-122.5 -72.5l-48 84q61 51 139.5 81.5t162.5 30.5q117 0 184 -57t67 -147q0 -84 -42 -142.5t-113 -85.5 q67 -18 104 -67t37 -125q0 -121 -83 -188.5t-214 -67.5q-86 0 -165 30.5t-138 81.5z" />
<glyph unicode="&#xb4;" horiz-adv-x="614" d="M309 1126l233 412h166l-305 -412h-94z" />
<glyph unicode="&#xb5;" horiz-adv-x="1132" d="M92 -369l107 1362h125l-50 -608q-2 -16 -2 -49q0 -240 232 -240q145 0 233 89t101 245l45 563h125l-80 -993h-121l12 174q-51 -90 -138 -139t-196 -49q-152 0 -233 75l-35 -430h-125z" />
<glyph unicode="&#xb6;" horiz-adv-x="1165" d="M141 1024q0 186 114 303t316 117h480l-144 -1813h-116l135 1704h-248l-135 -1704h-117l80 1031q-164 4 -264.5 102t-100.5 260z" />
<glyph unicode="&#xb7;" horiz-adv-x="450" d="M135 455l15 176h174l-15 -176h-174z" />
<glyph unicode="&#xb8;" horiz-adv-x="614" d="M78 -352l28 78q78 -29 152 -29q59 0 92 19.5t33 58.5q0 29 -18.5 44t-53.5 15q-39 0 -96 -20l-37 30l37 197h102l-24 -129q29 4 45 4q68 0 108.5 -36t40.5 -101q0 -78 -60 -124t-171 -46q-43 0 -92 9t-86 30z" />
<glyph unicode="&#xb9;" horiz-adv-x="778" d="M238 578l6 98h153l51 631l-147 -88l-47 88l225 137h94l-61 -768h151l-8 -98h-417z" />
<glyph unicode="&#xba;" horiz-adv-x="681" d="M98 1118q0 150 85 243t229 93q125 0 199.5 -77t74.5 -203q0 -154 -86 -246t-229 -92q-123 0 -198 77.5t-75 204.5zM215 1118q0 -92 41 -140t117 -48q92 0 143 63.5t51 177.5q0 90 -41 139.5t-118 49.5q-92 0 -142.5 -64.5t-50.5 -177.5z" />
<glyph unicode="&#xbb;" horiz-adv-x="851" d="M72 221l194 322l-139 323l96 35l166 -326l-4 -65l-219 -326zM418 221l194 322l-139 323l96 35l166 -326l-4 -65l-219 -326z" />
<glyph unicode="&#xbc;" horiz-adv-x="1896" d="M238 578l6 98h153l52 631l-148 -88l-47 88l225 137h94l-61 -768h152l-9 -98h-417zM436 14l969 1477l90 -61l-969 -1477zM1175 182l6 88l463 596h97l-45 -587h129l-11 -97h-127l-14 -182h-117l15 182h-396zM1300 279h279l31 401z" />
<glyph unicode="&#xbd;" horiz-adv-x="1896" d="M238 578l6 98h153l52 631l-148 -88l-47 88l225 137h94l-61 -768h152l-9 -98h-417zM436 14l969 1477l90 -61l-969 -1477zM1194 0l6 88l326 330q70 72 100.5 124t30.5 107q0 61 -38 94t-104 33q-57 0 -123.5 -25.5t-121.5 -72.5l-48 84q61 51 139.5 81.5t162.5 30.5 q119 0 185 -59t66 -160q0 -74 -38.5 -145.5t-124.5 -153.5l-263 -258h416l-8 -98h-563z" />
<glyph unicode="&#xbe;" horiz-adv-x="1896" d="M88 684l59 84q117 -98 240 -98q86 0 136 39t50 116q0 76 -45 110t-133 34h-104l8 96h88q94 0 146.5 42t52.5 124q0 59 -39 91t-105 32q-57 0 -122.5 -25.5t-122.5 -73.5l-47 84q61 51 139 82t162 31q117 0 184 -57.5t67 -147.5q0 -84 -42 -142t-113 -85q67 -19 104 -68 t37 -125q0 -121 -83 -188.5t-214 -67.5q-86 0 -165 31t-138 82zM436 14l969 1477l90 -61l-969 -1477zM1175 182l6 88l463 596h97l-45 -587h129l-11 -97h-127l-14 -182h-117l15 182h-396zM1300 279h279l31 401z" />
<glyph unicode="&#xbf;" horiz-adv-x="892" d="M12 -96q0 78 28 139t67.5 107.5t111.5 111.5q100 92 155.5 167t74.5 183l4 29h75l-2 -37q-6 -90 -37.5 -160.5t-72.5 -121t-109 -115.5q-86 -86 -126 -146.5t-40 -144.5q0 -86 64.5 -137t175.5 -51q102 0 202.5 42t207.5 132l45 -101q-90 -86 -214 -135t-245 -49 q-168 0 -266.5 80t-98.5 207zM418 819l14 174h174l-14 -174h-174z" />
<glyph unicode="&#xc0;" horiz-adv-x="1474" d="M14 0l740 1444h114l514 -1444h-129l-135 385h-776l-195 -385h-133zM397 496h682l-278 796zM540 1874h144l184 -307h-94z" />
<glyph unicode="&#xc1;" horiz-adv-x="1474" d="M14 0l740 1444h114l514 -1444h-129l-135 385h-776l-195 -385h-133zM397 496h682l-278 796zM774 1567l225 307h162l-293 -307h-94z" />
<glyph unicode="&#xc2;" horiz-adv-x="1474" d="M14 0l740 1444h114l514 -1444h-129l-135 385h-776l-195 -385h-133zM397 496h682l-278 796zM538 1567l260 307h94l211 -307h-125l-135 221l-176 -221h-129z" />
<glyph unicode="&#xc3;" horiz-adv-x="1474" d="M14 0l740 1444h114l514 -1444h-129l-135 385h-776l-195 -385h-133zM397 496h682l-278 796zM503 1620q4 104 55.5 159.5t133.5 55.5q41 0 78.5 -17.5t89.5 -50.5q41 -27 67.5 -40t50.5 -13q47 0 75 32t30 83h80q-4 -104 -55.5 -159.5t-133.5 -55.5q-41 0 -78.5 17.5 t-87.5 49.5q-43 27 -68.5 39.5t-49.5 12.5q-47 0 -75 -31t-32 -82h-80z" />
<glyph unicode="&#xc4;" horiz-adv-x="1474" d="M14 0l740 1444h114l514 -1444h-129l-135 385h-776l-195 -385h-133zM397 496h682l-278 796zM581 1649l12 147h154l-12 -147h-154zM921 1649l12 147h154l-12 -147h-154z" />
<glyph unicode="&#xc5;" horiz-adv-x="1474" d="M37 0l663 1346l66 43q-66 16 -108 69t-42 121q0 84 58.5 141.5t142.5 57.5t143.5 -57.5t59.5 -141.5q0 -68 -42 -121t-108 -69l476 -1291l-70 -98l-141 385h-793l-152 -303zM397 496h697l-287 780l22 82zM717 1579q0 -43 28.5 -73.5t71.5 -30.5t73 30.5t30 73.5 q0 45 -29 76t-74 31q-43 0 -71.5 -31t-28.5 -76z" />
<glyph unicode="&#xc6;" horiz-adv-x="2025" d="M-27 0l983 1444h1035l-6 -111h-906l72 -545h747l-8 -110h-723l76 -567h645l-10 -111h-737l-51 385h-715l-258 -385h-144zM449 496h626l-102 780z" />
<glyph unicode="&#xc7;" horiz-adv-x="1386" d="M147 659q0 242 83 423.5t237 279.5t362 98q160 0 290 -48t220 -140l-61 -98q-98 92 -202.5 133t-250.5 41q-170 0 -293.5 -83t-188 -239t-64.5 -369q0 -268 129 -414.5t366 -146.5q244 0 434 176l45 -100q-193 -180 -477 -188l-14 -72q29 4 45 4q68 0 108.5 -36 t40.5 -101q0 -78 -60 -124t-171 -46q-43 0 -92 9t-86 30l28 78q78 -29 152 -29q59 0 92 19.5t33 58.5q0 29 -18.5 44t-53.5 15q-39 0 -96 -20l-37 30l27 144q-244 25 -385.5 202t-141.5 469z" />
<glyph unicode="&#xc8;" horiz-adv-x="1185" d="M147 0l113 1444h891l-6 -109h-766l-43 -547h725l-10 -110h-723l-45 -569h766l-11 -109h-891zM463 1874h144l184 -307h-94z" />
<glyph unicode="&#xc9;" horiz-adv-x="1185" d="M147 0l113 1444h891l-6 -109h-766l-43 -547h725l-10 -110h-723l-45 -569h766l-11 -109h-891zM697 1567l225 307h162l-293 -307h-94z" />
<glyph unicode="&#xca;" horiz-adv-x="1185" d="M147 0l113 1444h891l-6 -109h-766l-43 -547h725l-10 -110h-723l-45 -569h766l-11 -109h-891zM461 1567l260 307h94l211 -307h-125l-135 221l-176 -221h-129z" />
<glyph unicode="&#xcb;" horiz-adv-x="1185" d="M147 0l113 1444h891l-6 -109h-766l-43 -547h725l-10 -110h-723l-45 -569h766l-11 -109h-891zM504 1649l12 147h154l-12 -147h-154zM844 1649l12 147h154l-12 -147h-154z" />
<glyph unicode="&#xcc;" horiz-adv-x="499" d="M53 1874h144l184 -307h-94zM147 0l113 1444h127l-113 -1444h-127z" />
<glyph unicode="&#xcd;" horiz-adv-x="499" d="M147 0l113 1444h127l-113 -1444h-127zM287 1567l225 307h162l-293 -307h-94z" />
<glyph unicode="&#xce;" horiz-adv-x="499" d="M51 1567l260 307h94l211 -307h-125l-135 221l-176 -221h-129zM147 0l113 1444h127l-113 -1444h-127z" />
<glyph unicode="&#xcf;" horiz-adv-x="499" d="M94 1649l12 147h154l-12 -147h-154zM147 0l113 1444h127l-113 -1444h-127zM434 1649l12 147h154l-12 -147h-154z" />
<glyph unicode="&#xd0;" horiz-adv-x="1515" d="M25 680l10 104h192l52 660h454q324 0 497 -172t173 -488q0 -244 -84 -420t-246 -270t-391 -94h-516l53 680h-194zM301 111h377q293 0 443.5 175t150.5 500q0 270 -135.5 408.5t-407.5 138.5h-332l-43 -549h398l-11 -104h-395z" />
<glyph unicode="&#xd1;" horiz-adv-x="1505" d="M147 0l113 1444h102l816 -1227l96 1227h119l-113 -1444h-98l-817 1235l-99 -1235h-119zM520 1620q4 104 55.5 159.5t133.5 55.5q41 0 78.5 -17.5t89.5 -50.5q41 -27 67.5 -40t50.5 -13q47 0 75 32t30 83h80q-4 -104 -55.5 -159.5t-133.5 -55.5q-41 0 -78.5 17.5 t-87.5 49.5q-43 27 -68.5 39.5t-49.5 12.5q-47 0 -75 -31t-32 -82h-80z" />
<glyph unicode="&#xd2;" horiz-adv-x="1550" d="M147 659q0 242 82 423.5t231.5 279.5t348.5 98q195 0 336 -81t217 -233.5t76 -361.5q0 -242 -81 -423t-231.5 -279t-351.5 -98q-192 0 -333.5 80.5t-217.5 233.5t-76 361zM279 657q0 -270 129 -414.5t368 -144.5q164 0 284 82t183.5 236.5t63.5 367.5q0 272 -129 417 t-369 145q-164 0 -283.5 -82t-183 -238t-63.5 -369zM577 1874h144l184 -307h-94z" />
<glyph unicode="&#xd3;" horiz-adv-x="1550" d="M147 659q0 242 82 423.5t231.5 279.5t348.5 98q195 0 336 -81t217 -233.5t76 -361.5q0 -242 -81 -423t-231.5 -279t-351.5 -98q-192 0 -333.5 80.5t-217.5 233.5t-76 361zM279 657q0 -270 129 -414.5t368 -144.5q164 0 284 82t183.5 236.5t63.5 367.5q0 272 -129 417 t-369 145q-164 0 -283.5 -82t-183 -238t-63.5 -369zM811 1567l225 307h162l-293 -307h-94z" />
<glyph unicode="&#xd4;" horiz-adv-x="1550" d="M147 659q0 242 82 423.5t231.5 279.5t348.5 98q195 0 336 -81t217 -233.5t76 -361.5q0 -242 -81 -423t-231.5 -279t-351.5 -98q-192 0 -333.5 80.5t-217.5 233.5t-76 361zM279 657q0 -270 129 -414.5t368 -144.5q164 0 284 82t183.5 236.5t63.5 367.5q0 272 -129 417 t-369 145q-164 0 -283.5 -82t-183 -238t-63.5 -369zM575 1567l260 307h94l211 -307h-125l-135 221l-176 -221h-129z" />
<glyph unicode="&#xd5;" horiz-adv-x="1550" d="M147 659q0 242 82 423.5t231.5 279.5t348.5 98q195 0 336 -81t217 -233.5t76 -361.5q0 -242 -81 -423t-231.5 -279t-351.5 -98q-192 0 -333.5 80.5t-217.5 233.5t-76 361zM279 657q0 -270 129 -414.5t368 -144.5q164 0 284 82t183.5 236.5t63.5 367.5q0 272 -129 417 t-369 145q-164 0 -283.5 -82t-183 -238t-63.5 -369zM540 1620q4 104 55.5 159.5t133.5 55.5q41 0 78.5 -17.5t89.5 -50.5q41 -27 67.5 -40t50.5 -13q47 0 75 32t30 83h80q-4 -104 -55.5 -159.5t-133.5 -55.5q-41 0 -78.5 17.5t-87.5 49.5q-43 27 -68.5 39.5t-49.5 12.5 q-47 0 -75 -31t-32 -82h-80z" />
<glyph unicode="&#xd6;" horiz-adv-x="1550" d="M147 659q0 242 82 423.5t231.5 279.5t348.5 98q195 0 336 -81t217 -233.5t76 -361.5q0 -242 -81 -423t-231.5 -279t-351.5 -98q-192 0 -333.5 80.5t-217.5 233.5t-76 361zM279 657q0 -270 129 -414.5t368 -144.5q164 0 284 82t183.5 236.5t63.5 367.5q0 272 -129 417 t-369 145q-164 0 -283.5 -82t-183 -238t-63.5 -369zM618 1649l12 147h154l-12 -147h-154zM958 1649l12 147h154l-12 -147h-154z" />
<glyph unicode="&#xd7;" d="M150 174l399 406l-375 407l80 74l371 -406l399 406l68 -74l-400 -405l375 -408l-78 -72l-373 404l-397 -404z" />
<glyph unicode="&#xd8;" horiz-adv-x="1550" d="M147 659q0 242 82 423.5t231.5 279.5t348.5 98q211 0 352 -92l107 160l88 -58l-111 -165q94 -88 143.5 -220.5t49.5 -300.5q0 -242 -81 -423t-231.5 -279t-351.5 -98q-205 0 -348 90l-104 -158l-89 57l109 164q-94 86 -144.5 219t-50.5 303zM279 657q0 -274 131 -417 l686 1030q-113 76 -287 76q-164 0 -283.5 -82t-183 -238t-63.5 -369zM492 172q115 -74 284 -74q164 0 284 82t183.5 236.5t63.5 367.5q0 270 -129 418z" />
<glyph unicode="&#xd9;" horiz-adv-x="1474" d="M178 479q0 25 4 78l68 887h127l-70 -881q-2 -25 -2 -69q0 -397 402 -398q219 0 335.5 109.5t133.5 335.5l69 903h125l-70 -889q-23 -287 -172 -429t-421 -142q-261 0 -395 128t-134 367zM540 1874h144l184 -307h-94z" />
<glyph unicode="&#xda;" horiz-adv-x="1474" d="M178 479q0 25 4 78l68 887h127l-70 -881q-2 -25 -2 -69q0 -397 402 -398q219 0 335.5 109.5t133.5 335.5l69 903h125l-70 -889q-23 -287 -172 -429t-421 -142q-261 0 -395 128t-134 367zM774 1567l225 307h162l-293 -307h-94z" />
<glyph unicode="&#xdb;" horiz-adv-x="1474" d="M178 479q0 25 4 78l68 887h127l-70 -881q-2 -25 -2 -69q0 -397 402 -398q219 0 335.5 109.5t133.5 335.5l69 903h125l-70 -889q-23 -287 -172 -429t-421 -142q-261 0 -395 128t-134 367zM538 1567l260 307h94l211 -307h-125l-135 221l-176 -221h-129z" />
<glyph unicode="&#xdc;" horiz-adv-x="1474" d="M178 479q0 25 4 78l68 887h127l-70 -881q-2 -25 -2 -69q0 -397 402 -398q219 0 335.5 109.5t133.5 335.5l69 903h125l-70 -889q-23 -287 -172 -429t-421 -142q-261 0 -395 128t-134 367zM581 1649l12 147h154l-12 -147h-154zM921 1649l12 147h154l-12 -147h-154z" />
<glyph unicode="&#xdd;" horiz-adv-x="1210" d="M57 1444h142l426 -645l528 645h145l-616 -754l-55 -690h-125l55 692zM641 1567l225 307h162l-293 -307h-94z" />
<glyph unicode="&#xde;" horiz-adv-x="1306" d="M147 0l113 1444h127l-27 -326h433q208 0 321 -92t113 -270q0 -190 -123 -298t-356 -108h-447l-29 -350h-125zM309 459h432q185 0 272 73.5t87 221.5q0 133 -79 194.5t-235 61.5h-434z" />
<glyph unicode="&#xdf;" horiz-adv-x="1224" d="M125 0l80 1008q18 221 141 332.5t316 111.5q145 0 229 -62.5t84 -175.5q0 -92 -49 -155.5t-140 -136.5q-70 -57 -102.5 -97.5t-32.5 -87.5q0 -66 52.5 -102.5t158.5 -75.5q88 -33 143.5 -62.5t94.5 -80.5t39 -131q0 -133 -100.5 -216t-270.5 -83q-100 0 -198.5 34.5 t-168.5 98.5l56 96q82 -63 157.5 -92t159.5 -29q109 0 173.5 49.5t64.5 135.5q0 68 -54.5 104.5t-162.5 73.5q-88 31 -142.5 58.5t-92.5 76.5t-38 125q0 84 45 141t131 127q78 61 117 109.5t39 111.5q0 66 -52 103t-143 37q-303 0 -329 -345l-80 -1001h-125z" />
<glyph unicode="&#xe0;" horiz-adv-x="1077" d="M115 270q0 111 59 177.5t192.5 96t360.5 29.5h72l6 70q2 16 2 45q0 115 -53.5 168t-167.5 53q-174 0 -342 -108l-41 98q74 53 181.5 86t205.5 33q340 0 340 -328q0 -33 -2 -51l-51 -639h-123l14 170q-49 -90 -131 -137t-184 -47q-150 0 -244 79.5t-94 204.5zM246 279 q0 -84 61.5 -134.5t165.5 -50.5q127 0 215 87t98 227l7 73h-60q-201 0 -305 -20.5t-143 -63.5t-39 -118zM329 1538h148l176 -412h-94z" />
<glyph unicode="&#xe1;" horiz-adv-x="1077" d="M115 270q0 111 59 177.5t192.5 96t360.5 29.5h72l6 70q2 16 2 45q0 115 -53.5 168t-167.5 53q-174 0 -342 -108l-41 98q74 53 181.5 86t205.5 33q340 0 340 -328q0 -33 -2 -51l-51 -639h-123l14 170q-49 -90 -131 -137t-184 -47q-150 0 -244 79.5t-94 204.5zM246 279 q0 -84 61.5 -134.5t165.5 -50.5q127 0 215 87t98 227l7 73h-60q-201 0 -305 -20.5t-143 -63.5t-39 -118zM559 1126l233 412h166l-305 -412h-94z" />
<glyph unicode="&#xe2;" horiz-adv-x="1077" d="M115 270q0 111 59 177.5t192.5 96t360.5 29.5h72l6 70q2 16 2 45q0 115 -53.5 168t-167.5 53q-174 0 -342 -108l-41 98q74 53 181.5 86t205.5 33q340 0 340 -328q0 -33 -2 -51l-51 -639h-123l14 170q-49 -90 -131 -137t-184 -47q-150 0 -244 79.5t-94 204.5zM246 279 q0 -84 61.5 -134.5t165.5 -50.5q127 0 215 87t98 227l7 73h-60q-201 0 -305 -20.5t-143 -63.5t-39 -118zM323 1126l267 412h98l201 -412h-125l-131 310l-179 -310h-131z" />
<glyph unicode="&#xe3;" horiz-adv-x="1077" d="M115 270q0 111 59 177.5t192.5 96t360.5 29.5h72l6 70q2 16 2 45q0 115 -53.5 168t-167.5 53q-174 0 -342 -108l-41 98q74 53 181.5 86t205.5 33q340 0 340 -328q0 -33 -2 -51l-51 -639h-123l14 170q-49 -90 -131 -137t-184 -47q-150 0 -244 79.5t-94 204.5zM246 279 q0 -84 61.5 -134.5t165.5 -50.5q127 0 215 87t98 227l7 73h-60q-201 0 -305 -20.5t-143 -63.5t-39 -118zM293 1231q4 104 54 159.5t132 55.5q43 0 81 -17.5t89 -50.5q43 -27 68.5 -39t50.5 -12q47 0 74.5 31t31.5 82h80q-6 -104 -57 -159.5t-131 -55.5q-43 0 -81 17.5 t-89 49.5q-39 25 -65.5 38t-51.5 13q-47 0 -74.5 -30.5t-32.5 -81.5h-79z" />
<glyph unicode="&#xe4;" horiz-adv-x="1077" d="M115 270q0 111 59 177.5t192.5 96t360.5 29.5h72l6 70q2 16 2 45q0 115 -53.5 168t-167.5 53q-174 0 -342 -108l-41 98q74 53 181.5 86t205.5 33q340 0 340 -328q0 -33 -2 -51l-51 -639h-123l14 170q-49 -90 -131 -137t-184 -47q-150 0 -244 79.5t-94 204.5zM246 279 q0 -84 61.5 -134.5t165.5 -50.5q127 0 215 87t98 227l7 73h-60q-201 0 -305 -20.5t-143 -63.5t-39 -118zM370 1260l13 149h153l-12 -149h-154zM710 1260l13 149h153l-12 -149h-154z" />
<glyph unicode="&#xe5;" horiz-adv-x="1077" d="M115 270q0 111 59 177.5t192.5 96t360.5 29.5h72l6 70q2 16 2 45q0 115 -53.5 168t-167.5 53q-174 0 -342 -108l-41 98q74 53 181.5 86t205.5 33q340 0 340 -328q0 -33 -2 -51l-51 -639h-123l14 170q-49 -90 -131 -137t-184 -47q-150 0 -244 79.5t-94 204.5zM246 279 q0 -84 61.5 -134.5t165.5 -50.5q127 0 215 87t98 227l7 73h-60q-201 0 -305 -20.5t-143 -63.5t-39 -118zM420 1333q0 82 59 139.5t143 57.5t143.5 -57.5t59.5 -139.5q0 -84 -59.5 -141t-143.5 -57t-143 57t-59 141zM522 1333q0 -45 28.5 -75.5t71.5 -30.5q45 0 74 30.5 t29 75.5q0 43 -30 74t-73 31t-71.5 -31t-28.5 -74z" />
<glyph unicode="&#xe6;" horiz-adv-x="1755" d="M115 270q0 111 59 177.5t192.5 96t360.5 29.5h78l6 70q2 18 2 49q0 113 -54 165t-169 52q-178 0 -346 -108l-41 98q74 53 181.5 86t209.5 33q254 0 319 -182q61 88 153.5 135t209.5 47q182 0 287.5 -111.5t105.5 -326.5q0 -45 -6 -99h-739v-20q0 -172 86 -268.5 t250 -96.5q80 0 163.5 30t153.5 89l41 -96q-59 -59 -161.5 -96t-199.5 -37q-158 0 -263 71.5t-148 200.5q-47 -127 -151.5 -199.5t-241.5 -72.5q-150 0 -244 79.5t-94 204.5zM246 279q0 -84 60.5 -134.5t160.5 -50.5q133 0 224 92.5t104 239.5l4 55h-66q-201 0 -305 -20.5 t-143 -63.5t-39 -118zM932 573h622q6 168 -67.5 255t-204.5 87q-147 0 -237.5 -89t-112.5 -253z" />
<glyph unicode="&#xe7;" horiz-adv-x="972" d="M100 465q0 166 59.5 291t171 193.5t261.5 68.5q106 0 198.5 -35t157.5 -96l-55 -99q-78 63 -148.5 92t-154.5 29q-170 0 -264.5 -118.5t-94.5 -329.5q0 -170 85 -267.5t241 -97.5q80 0 146.5 28t144.5 91l41 -96q-61 -61 -150.5 -96t-185.5 -37l-14 -74q29 4 45 4 q68 0 108.5 -36t40.5 -101q0 -78 -60.5 -124t-170.5 -46q-43 0 -92.5 9t-85.5 30l28 78q78 -29 152 -29q59 0 92 19.5t33 58.5q0 29 -18.5 44t-53.5 15q-39 0 -96 -20l-37 30l29 150q-164 29 -258.5 154.5t-94.5 316.5z" />
<glyph unicode="&#xe8;" horiz-adv-x="1077" d="M100 465q0 164 59.5 289t170 194.5t258.5 69.5q186 0 293.5 -110.5t107.5 -325.5q0 -47 -6 -101h-754v-20q0 -172 86 -268.5t248 -96.5q195 0 334 119l41 -96q-61 -61 -165.5 -97t-213.5 -36q-213 0 -336 130t-123 349zM238 573h636q6 168 -69.5 255t-210.5 87 q-152 0 -243 -89t-113 -253zM337 1538h148l176 -412h-94z" />
<glyph unicode="&#xe9;" horiz-adv-x="1077" d="M100 465q0 164 59.5 289t170 194.5t258.5 69.5q186 0 293.5 -110.5t107.5 -325.5q0 -47 -6 -101h-754v-20q0 -172 86 -268.5t248 -96.5q195 0 334 119l41 -96q-61 -61 -165.5 -97t-213.5 -36q-213 0 -336 130t-123 349zM238 573h636q6 168 -69.5 255t-210.5 87 q-152 0 -243 -89t-113 -253zM567 1126l233 412h166l-305 -412h-94z" />
<glyph unicode="&#xea;" horiz-adv-x="1077" d="M100 465q0 164 59.5 289t170 194.5t258.5 69.5q186 0 293.5 -110.5t107.5 -325.5q0 -47 -6 -101h-754v-20q0 -172 86 -268.5t248 -96.5q195 0 334 119l41 -96q-61 -61 -165.5 -97t-213.5 -36q-213 0 -336 130t-123 349zM238 573h636q6 168 -69.5 255t-210.5 87 q-152 0 -243 -89t-113 -253zM331 1126l267 412h98l201 -412h-125l-131 310l-179 -310h-131z" />
<glyph unicode="&#xeb;" horiz-adv-x="1077" d="M100 465q0 164 59.5 289t170 194.5t258.5 69.5q186 0 293.5 -110.5t107.5 -325.5q0 -47 -6 -101h-754v-20q0 -172 86 -268.5t248 -96.5q195 0 334 119l41 -96q-61 -61 -165.5 -97t-213.5 -36q-213 0 -336 130t-123 349zM238 573h636q6 168 -69.5 255t-210.5 87 q-152 0 -243 -89t-113 -253zM378 1260l13 149h153l-12 -149h-154zM718 1260l13 149h153l-12 -149h-154z" />
<glyph unicode="&#xec;" horiz-adv-x="454" d="M0 1538h148l176 -412h-94zM125 0l78 993h125l-78 -993h-125z" />
<glyph unicode="&#xed;" horiz-adv-x="454" d="M125 0l78 993h125l-78 -993h-125zM230 1126l233 412h166l-305 -412h-94z" />
<glyph unicode="&#xee;" horiz-adv-x="454" d="M-6 1126l267 412h98l201 -412h-125l-131 310l-179 -310h-131zM125 0l78 993h125l-78 -993h-125z" />
<glyph unicode="&#xef;" horiz-adv-x="454" d="M41 1260l13 149h153l-12 -149h-154zM125 0l78 993h125l-78 -993h-125zM381 1260l13 149h153l-12 -149h-154z" />
<glyph unicode="&#xf0;" horiz-adv-x="1124" d="M96 426q0 150 58.5 264.5t165 178t245.5 63.5q125 0 216 -51.5t134 -137.5q-16 248 -170 414l-331 -125l-25 90l281 105q-119 90 -275 137l39 92q209 -61 352 -184l271 100l24 -88l-225 -84q178 -209 178 -541q0 -340 -133 -506.5t-360 -166.5q-203 0 -324 119.5 t-121 320.5zM227 422q0 -158 82 -242t238 -84q158 0 249 107.5t91 298.5q0 150 -85 234.5t-235 84.5q-160 0 -250 -106.5t-90 -292.5z" />
<glyph unicode="&#xf1;" horiz-adv-x="1148" d="M125 0l78 993h123l-13 -162q51 88 140.5 137.5t203.5 49.5q166 0 254 -84t88 -250q0 -37 -2 -55l-49 -629h-125l49 621q2 16 2 47q0 240 -237 239q-152 0 -241 -88t-101 -244l-45 -575h-125zM310 1231q4 104 54 159.5t132 55.5q43 0 81 -17.5t89 -50.5q43 -27 68.5 -39 t50.5 -12q47 0 74.5 31t31.5 82h80q-6 -104 -57 -159.5t-131 -55.5q-43 0 -81 17.5t-89 49.5q-39 25 -65.5 38t-51.5 13q-47 0 -74.5 -30.5t-32.5 -81.5h-79z" />
<glyph unicode="&#xf2;" horiz-adv-x="1116" d="M100 465q0 166 58.5 291t166 193.5t246.5 68.5q135 0 236.5 -59.5t156 -168t54.5 -253.5q0 -164 -58.5 -289t-166 -193.5t-248.5 -68.5q-133 0 -234.5 59t-156 168t-54.5 252zM231 459q0 -176 82 -269.5t238 -93.5q158 0 248 120t90 327q0 174 -84 270t-234 96 q-160 0 -250 -119.5t-90 -330.5zM331 1538h148l176 -412h-94z" />
<glyph unicode="&#xf3;" horiz-adv-x="1116" d="M100 465q0 166 58.5 291t166 193.5t246.5 68.5q135 0 236.5 -59.5t156 -168t54.5 -253.5q0 -164 -58.5 -289t-166 -193.5t-248.5 -68.5q-133 0 -234.5 59t-156 168t-54.5 252zM231 459q0 -176 82 -269.5t238 -93.5q158 0 248 120t90 327q0 174 -84 270t-234 96 q-160 0 -250 -119.5t-90 -330.5zM561 1126l233 412h166l-305 -412h-94z" />
<glyph unicode="&#xf4;" horiz-adv-x="1116" d="M100 465q0 166 58.5 291t166 193.5t246.5 68.5q135 0 236.5 -59.5t156 -168t54.5 -253.5q0 -164 -58.5 -289t-166 -193.5t-248.5 -68.5q-133 0 -234.5 59t-156 168t-54.5 252zM231 459q0 -176 82 -269.5t238 -93.5q158 0 248 120t90 327q0 174 -84 270t-234 96 q-160 0 -250 -119.5t-90 -330.5zM325 1126l267 412h98l201 -412h-125l-131 310l-179 -310h-131z" />
<glyph unicode="&#xf5;" horiz-adv-x="1116" d="M100 465q0 166 58.5 291t166 193.5t246.5 68.5q135 0 236.5 -59.5t156 -168t54.5 -253.5q0 -164 -58.5 -289t-166 -193.5t-248.5 -68.5q-133 0 -234.5 59t-156 168t-54.5 252zM231 459q0 -176 82 -269.5t238 -93.5q158 0 248 120t90 327q0 174 -84 270t-234 96 q-160 0 -250 -119.5t-90 -330.5zM295 1231q4 104 54 159.5t132 55.5q43 0 81 -17.5t89 -50.5q43 -27 68.5 -39t50.5 -12q47 0 74.5 31t31.5 82h80q-6 -104 -57 -159.5t-131 -55.5q-43 0 -81 17.5t-89 49.5q-39 25 -65.5 38t-51.5 13q-47 0 -74.5 -30.5t-32.5 -81.5h-79z" />
<glyph unicode="&#xf6;" horiz-adv-x="1116" d="M100 465q0 166 58.5 291t166 193.5t246.5 68.5q135 0 236.5 -59.5t156 -168t54.5 -253.5q0 -164 -58.5 -289t-166 -193.5t-248.5 -68.5q-133 0 -234.5 59t-156 168t-54.5 252zM231 459q0 -176 82 -269.5t238 -93.5q158 0 248 120t90 327q0 174 -84 270t-234 96 q-160 0 -250 -119.5t-90 -330.5zM372 1260l13 149h153l-12 -149h-154zM712 1260l13 149h153l-12 -149h-154z" />
<glyph unicode="&#xf7;" d="M117 528l8 105h999l-8 -105h-999zM481 80l15 182h176l-15 -182h-176zM547 901l14 182h176l-14 -182h-176z" />
<glyph unicode="&#xf8;" horiz-adv-x="1116" d="M100 465q0 166 58.5 291t166 193.5t246.5 68.5q129 0 232 -57l84 126l84 -49l-90 -135q65 -63 101 -156.5t36 -209.5q0 -164 -58.5 -289t-166 -193.5t-248.5 -68.5q-131 0 -230 57l-84 -127l-81 51l88 133q-68 63 -103 156.5t-35 208.5zM229 459q0 -166 74 -258l438 665 q-72 43 -170 43q-160 0 -251 -120.5t-91 -329.5zM377 137q72 -41 174 -41q158 0 248 120t90 327q0 160 -74 260z" />
<glyph unicode="&#xf9;" horiz-adv-x="1132" d="M147 322q0 35 3 53l49 618h125l-50 -608q-2 -16 -2 -49q0 -240 232 -240q145 0 233 88t101 246l45 563h125l-80 -993h-121l12 174q-51 -90 -138 -139t-196 -49q-164 0 -251 85t-87 251zM337 1538h148l176 -412h-94z" />
<glyph unicode="&#xfa;" horiz-adv-x="1132" d="M147 322q0 35 3 53l49 618h125l-50 -608q-2 -16 -2 -49q0 -240 232 -240q145 0 233 88t101 246l45 563h125l-80 -993h-121l12 174q-51 -90 -138 -139t-196 -49q-164 0 -251 85t-87 251zM567 1126l233 412h166l-305 -412h-94z" />
<glyph unicode="&#xfb;" horiz-adv-x="1132" d="M147 322q0 35 3 53l49 618h125l-50 -608q-2 -16 -2 -49q0 -240 232 -240q145 0 233 88t101 246l45 563h125l-80 -993h-121l12 174q-51 -90 -138 -139t-196 -49q-164 0 -251 85t-87 251zM331 1126l267 412h98l201 -412h-125l-131 310l-179 -310h-131z" />
<glyph unicode="&#xfc;" horiz-adv-x="1132" d="M147 322q0 35 3 53l49 618h125l-50 -608q-2 -16 -2 -49q0 -240 232 -240q145 0 233 88t101 246l45 563h125l-80 -993h-121l12 174q-51 -90 -138 -139t-196 -49q-164 0 -251 85t-87 251zM378 1260l13 149h153l-12 -149h-154zM718 1260l13 149h153l-12 -149h-154z" />
<glyph unicode="&#xfd;" horiz-adv-x="1042" d="M72 993h129l291 -866l426 866h131l-693 -1362h-127l189 371zM524 1126l233 412h166l-305 -412h-94z" />
<glyph unicode="&#xfe;" horiz-adv-x="1173" d="M96 -369l144 1813h125l-50 -608q49 86 139.5 134t196.5 48q125 0 221.5 -59.5t149.5 -168t53 -253.5q0 -164 -58.5 -289t-163.5 -193.5t-243 -68.5q-121 0 -211 54t-133 150l-45 -559h-125zM287 461q0 -178 83 -271.5t236 -93.5q158 0 249 119t91 326q0 174 -84 271 t-235 97q-158 0 -249 -119.5t-91 -328.5z" />
<glyph unicode="&#xff;" horiz-adv-x="1042" d="M72 993h129l291 -866l426 866h131l-693 -1362h-127l189 371zM335 1260l13 149h153l-12 -149h-154zM675 1260l13 149h153l-12 -149h-154z" />
<glyph unicode="&#x152;" horiz-adv-x="2142" d="M147 659q0 244 84 420t246 270.5t391 94.5h1239l-6 -109h-768l-43 -547h725l-8 -110h-725l-45 -569h768l-10 -109h-1178q-324 0 -497 172t-173 487zM279 657q0 -270 136 -409t408 -139h291l96 1226h-338q-293 0 -443 -176t-150 -502z" />
<glyph unicode="&#x153;" horiz-adv-x="1853" d="M100 465q0 166 58.5 291t166 193.5t248.5 68.5q145 0 243.5 -65.5t144.5 -196.5q55 125 159.5 193.5t251.5 68.5q184 0 289.5 -111.5t105.5 -326.5q0 -45 -6 -99h-747v-20q0 -172 87 -268.5t255 -96.5q82 0 166 30t153 89l41 -96q-59 -59 -162.5 -96t-199.5 -37 q-156 0 -259.5 66.5t-152.5 189.5q-53 -119 -156.5 -187.5t-242.5 -68.5q-133 0 -233.5 59t-155 168t-54.5 252zM231 459q0 -176 82 -269.5t238 -93.5q158 0 248 120t90 327q0 174 -84 270t-234 96q-160 0 -250 -119.5t-90 -330.5zM1022 573h631q6 168 -69 255t-206 87 q-151 0 -242.5 -89t-113.5 -253z" />
<glyph unicode="&#x178;" horiz-adv-x="1210" d="M57 1444h142l426 -645l528 645h145l-616 -754l-55 -690h-125l55 692zM448 1649l12 147h154l-12 -147h-154zM788 1649l12 147h154l-12 -147h-154z" />
<glyph unicode="&#x2c6;" horiz-adv-x="614" d="M73 1126l267 412h98l201 -412h-125l-131 310l-179 -310h-131z" />
<glyph unicode="&#x2dc;" horiz-adv-x="614" d="M43 1231q4 104 54 159.5t132 55.5q43 0 81 -17.5t89 -50.5q43 -27 68.5 -39t50.5 -12q47 0 74.5 31t31.5 82h80q-6 -104 -57 -159.5t-131 -55.5q-43 0 -81 17.5t-89 49.5q-39 25 -65.5 38t-51.5 13q-47 0 -74.5 -30.5t-32.5 -81.5h-79z" />
<glyph unicode="&#x2000;" horiz-adv-x="937" />
<glyph unicode="&#x2001;" horiz-adv-x="1874" />
<glyph unicode="&#x2002;" horiz-adv-x="937" />
<glyph unicode="&#x2003;" horiz-adv-x="1874" />
<glyph unicode="&#x2004;" horiz-adv-x="624" />
<glyph unicode="&#x2005;" horiz-adv-x="468" />
<glyph unicode="&#x2006;" horiz-adv-x="312" />
<glyph unicode="&#x2007;" horiz-adv-x="312" />
<glyph unicode="&#x2008;" horiz-adv-x="234" />
<glyph unicode="&#x2009;" horiz-adv-x="374" />
<glyph unicode="&#x200a;" horiz-adv-x="104" />
<glyph unicode="&#x2010;" horiz-adv-x="862" d="M152 492l10 106h555l-8 -106h-557z" />
<glyph unicode="&#x2011;" horiz-adv-x="862" d="M152 492l10 106h555l-8 -106h-557z" />
<glyph unicode="&#x2012;" horiz-adv-x="862" d="M152 492l10 106h555l-8 -106h-557z" />
<glyph unicode="&#x2013;" horiz-adv-x="1024" d="M0 500l6 88h1024l-6 -88h-1024z" />
<glyph unicode="&#x2014;" horiz-adv-x="2048" d="M0 500l6 88h2048l-6 -88h-2048z" />
<glyph unicode="&#x2018;" horiz-adv-x="450" d="M182 1061l11 131q6 78 35.5 141.5t93.5 120.5l59 -51q-45 -43 -65.5 -82t-26.5 -84h82l-15 -176h-174z" />
<glyph unicode="&#x2019;" horiz-adv-x="450" d="M188 1102q45 45 65.5 84t27.5 82h-82l14 176h174l-10 -129q-6 -78 -36 -142.5t-91 -121.5z" />
<glyph unicode="&#x201a;" horiz-adv-x="450" d="M88 -166q80 80 94 166h-82l13 176h174l-11 -135q-6 -78 -34.5 -139.5t-91.5 -118.5z" />
<glyph unicode="&#x201c;" horiz-adv-x="765" d="M182 1061l11 131q6 78 35.5 141.5t93.5 120.5l59 -51q-45 -43 -65.5 -82t-26.5 -84h82l-15 -176h-174zM497 1061l11 131q6 78 35.5 141.5t93.5 120.5l59 -51q-45 -43 -65.5 -82t-26.5 -84h82l-15 -176h-174z" />
<glyph unicode="&#x201d;" horiz-adv-x="765" d="M188 1102q45 45 65.5 84t27.5 82h-82l14 176h174l-10 -129q-6 -78 -36 -142.5t-91 -121.5zM503 1102q45 45 65.5 84t27.5 82h-82l14 176h174l-10 -129q-6 -78 -36 -142.5t-91 -121.5z" />
<glyph unicode="&#x201e;" horiz-adv-x="765" d="M88 -166q80 80 94 166h-82l13 176h174l-11 -135q-6 -78 -34.5 -139.5t-91.5 -118.5zM403 -166q80 80 94 166h-82l13 176h174l-11 -135q-6 -78 -34.5 -139.5t-91.5 -118.5z" />
<glyph unicode="&#x2022;" horiz-adv-x="1073" d="M168 543q0 94 48 178t133 135t190 51q98 0 183 -48t136 -131t51 -185q0 -98 -50 -181t-135 -132.5t-185 -49.5q-99 0 -185 48t-136 131t-50 184z" />
<glyph unicode="&#x2026;" horiz-adv-x="1351" d="M100 0l13 176h174l-13 -176h-174zM551 0l12 176h174l-12 -176h-174zM1001 0l13 176h174l-12 -176h-175z" />
<glyph unicode="&#x202f;" horiz-adv-x="374" />
<glyph unicode="&#x2039;" horiz-adv-x="505" d="M125 510l4 65l217 326l94 -37l-190 -321l135 -324l-94 -35z" />
<glyph unicode="&#x203a;" horiz-adv-x="505" d="M72 221l194 322l-139 323l96 35l166 -326l-4 -65l-219 -326z" />
<glyph unicode="&#x205f;" horiz-adv-x="468" />
<glyph unicode="&#x20ac;" d="M33 518l8 103h215v6q0 106 12 198h-211l11 103h215q53 256 192 394t344 138q272 0 441 -188l-62 -101q-72 88 -169 133.5t-210 45.5q-155 0 -258.5 -108.5t-148.5 -313.5h376l-8 -103h-385q-12 -94 -12 -204h381l-8 -103h-369q14 -211 108.5 -317.5t262.5 -106.5 q88 0 187 48t181 130l48 -100q-78 -82 -196 -135t-218 -53q-219 0 -348 138t-152 396h-227z" />
<glyph unicode="&#x2122;" horiz-adv-x="1857" d="M78 1341l10 103h709l-9 -103h-294l-60 -759h-123l62 759h-295zM864 582l68 862h92l274 -608l365 608h94l-67 -862h-107l49 635l-301 -502h-84l-223 493l-49 -626h-111z" />
<glyph unicode="&#x25fc;" horiz-adv-x="993" d="M0 0v993h993v-993h-993z" />
</font>
</defs>
</svg>
