<svg xmlns="http://www.w3.org/2000/svg" viewBox="0 0 24 24">
  <path d="M9.1 14.7v-.5c.1 0 .2.1.4.2-.2.2-.3.2-.4.3zm1.3-1.5c-.2-.2-.7 0-.8.1-.1.1-.4.1-.5.1 0-.1-.1-.2-.2-.3-.1 0-.4-.1-.7-.1l.5-.5s.4 0 .6-.2c.3-.2 1.3-1.2 1.4-1.3.1-.1.3 0 .2.2 0 .2-.2 1.2-.2 1.6v1.1s-.2.1-.2.3h-.1c0-.2.2-.8 0-1zm.9 3.2c-.1.1-.2.1-.2.1s-.4-.6-.5-1.2c0-.1 0-.1-.1-.2.1 0 .2 0 .3.1.1.1.2.4.3.5-.1.2-.1.3.1.3.2.1.4 0 .4 0l.1.1c-.2.1-.4.2-.4.3zm4.7-4.3c.2-.2.3-.2.4 0 0 .1.1.5.2.8-.2 0-.3.1-.3.1-.1-.2-.3-.3-.4-.4-.1-.2 0-.4.1-.5zm.9 3.1s-1.3.3-1.5.4c-.2.1-.4.3-.6.2-.2 0 .3-.2.6-.5.1-.1.2-.3.3-.4 0 0 0-.1.1-.1.2-.3.5-.6.6-.9h.1c0 .3.1.5.3.7.1.1.2.3.4.4-.1.2-.2.2-.3.2zm2.4 0c-.1.1-.3.2-.6-.3s0-.7.2-.7.2.1.3.3c.1.3.2.6.1.7"/>
  <path d="M15.7 15c0 .1-.1.3-.3.4-.3.3-.7.4-.6.5.2 0 .3-.1.6-.2.2-.1 1.5-.4 1.5-.4.1 0 .2 0 .3-.1-.2-.1-.4-.3-.4-.4-.1-.2-.2-.4-.3-.7h-.1c-.2.2-.4.4-.7.9 0-.1 0 0 0 0m.8-2.2c-.1-.3-.1-.7-.2-.8 0-.2-.2-.2-.4 0-.1.1-.2.3-.2.4.2.1.3.2.4.4.2.1.3 0 .4 0m2.4 1.5c-.2 0-.5.2-.2.7.3.5.5.4.6.3.1-.1.1-.4-.1-.7-.2-.3-.2-.3-.3-.3"/>
  <path d="M10 11.1c.5-.3.8-.5.8-.5h.4c.1.1.2.7.3 1.3.1.6-.2 1.7-.2 1.7l.2.1c.2.1.2.7 0 .8-.1.1-.1.2-.1.4l.2.2h.1c.1-.1.1-.2.2-.6.1-.2.2-.3.5-.4-.1-.5-.1-1.6-.1-1.7 0-.1-.1-.2-.1-.5 0-.2.1-.5.3-.5.2-.1.3.1.3.3 0 .2.1 1.6.1 2.2.2-.1.4 0 .5.1.1 0 .1-.1.1-.3 0-.2 1.2-1 1.4-1.2.1-.1.2-.1.3-.1l.6-.6c.3-.2.6-.2.6-.2s.1.1.3.4c.1.1.2.3.3.4.1-.3.3-.5.7-.6.4 0 1.5.3 1.8.5.3.2.7.7.9.9 0 0 .5.5.6.5 0-.1.2-.1.2-.1l.4-.2-3.8-8.9h-.1l-8.4 7c.2-.1.5-.3.7-.4m3.4 5.8c-.2 0-.4-.3-.5-.6V16c-.2.1-.4 0-.4 0 .1.1.1.2.1.3 0 .3-.1.4-.3.6-.2.1-.3-.1-.4 0-.2.1-.5.3-.6.1 0-.1-.2 0-.3 0-.2 0-.1-.2-.1-.2l-.6-.6c-.2-.3-.5-.9-.5-1.2 0-.3-.3-.2-.4-.2-.1 0-.2.1-.4.2-.1.2-.3.5-.5.8-.3.5-1 1-1.4 1.2h-.2c-.1.1-.2.1-.3.2-.1.3-1.5 1.6-1.5 1.7 0 .1-.4.3-.7.5h12.1c-.1-.1-.1-.2-.2-.2-.2-.3-.9-1.4-1-1.7-.1-.3-.4-.6-.6-.5-.1.1-.7.4-1 .3-.2-.1-.2-.4-.2-.4h-.1M5 18.7c.2-.2.7-.8 1-1.3h-.4c-.4 0-.7-.1-.7-.1-.4-.8-.4-1.4-.3-1.8L0 19.4h4.3l.7-.7"/>
  <path d="M21.2 14.1h-.1v.2c.1.2.3.9.2 1.2 0 .3-.1.5-.1.5v.2l.1.3s.2.1.3.2c.1 0 .9.4 1.2.7.3.2.5.7.6 1.2.1.5 0 .6-.1.5-.1 0-.4-.4-.4-.8s-.4-.8-.6-1c-.2-.2-.9-.3-1-.4-.1 0-.1-.1-.1-.1l-.2-.2s0-.1-.1-.1c0 .1-.1.1-.3.1-.3 0-1.1-.2-1.5-.4-.3-.1-.8-.3-1.1-.4.2.6.9 1.7.9 1.8 0 .1.3.2.5.2.2.1.2.7.4.8.2.1.9.1 1.2.2.3.1.3.2.2.3-.1.1-1.2-.2-1.5-.3-.3 0-.4-.3-.5-.5-.1-.2-.1-.4-.3-.3-.2 0-.2-.2-.4-.2-.2.1-.2-.2-.5-.7-.3-.6-.5-1.3-.6-1.3-.1 0-.4 0-.5.1-.1.1-1 .5-1.2.7-.2.2-1.1-.2-1.3-.3-.2-.1-.3-.4-.3-.6 0 0 0-.1.1-.1h-.1c-.2 0-.2 0-.3.2 0 .1-.1.1-.2.1.1.1.1.3.1.4.1.3-.1.5 0 .5.1.1.2.1.4 0 .2-.2.6-.3.9-.2.3.1 1 1.5 1.3 2 .1.3.3.7.4.8H24l-2.4-5.6c-.2.1-.3.2-.4.3M8 12.9s.5-.6.7-.8l-.9.8H8m2.8 2.3c-.1-.1-.2-.1-.3-.1 0 .1 0 .1.1.2.2.6.5 1.2.5 1.2s.1.1.2-.1c.1-.1.2-.2.4-.3l-.1-.1s-.2.1-.4 0c-.2 0-.2-.1-.1-.3-.1-.2-.2-.4-.3-.5m0-4.3c-.2.1-1.2 1.1-1.5 1.3-.3.2-.6.2-.6.2l-.5.6c.3.1.6.1.7.2.1.1.2.2.2.3.1 0 .3-.1.5-.1.2-.1.6-.3.8-.1.2.2 0 .8.1.8h.1c0-.2.2-.3.2-.3v-1.1c0-.4.2-1.3.2-1.6 0-.2-.1-.3-.2-.2m-1.4 3.6c-.1-.1-.3-.2-.4-.2v.5c.2-.2.3-.2.4-.3"/>
</svg>