<svg version="1.1" xmlns="http://www.w3.org/2000/svg" xmlns:xlink="http://www.w3.org/1999/xlink" viewBox="0 0 162 92">
<style type="text/css">
		.st0{fill:#EC1B2E;}
		.st1{fill:#231F20;}
</style>
<g>
		<g>
				<path d="M48.5,0.9l0,18.3c-0.1,0.7-0.6,0.8-0.7,0C47,9.1,35.1-0.4,23.9,3.6c-13.4,4.8-15.2,19.6-13.8,31c0.6,4.5,1.8,8.6,4.9,12.5
						c3.1,3.9,7.4,6.5,12.6,6.9c8.5,0.7,16-3.2,20.7-9.7c0.1-0.2,0.5,0.1,0.5,0.2c-5.2,11.8-21.8,17-34.1,9.8
						c-16.1-9.3-18.8-28.7-9-42.8C13.8-0.1,30.4-3.3,43.4,3.6c2,1,3.4-1.1,4.4-2.7L48.5,0.9z"/>
		</g>
		<g>
				<path d="M155,52c0,2.7,4.9,3.2,6.5,3.2v1.2h-22.3v-1.2c1.3,0,6.8-0.5,6.8-3.2v-47c0-3.7-6-3.2-6.8-3.4V0.3h22.3v1.2
						c-0.7,0.1-6.5-0.4-6.5,3.4V52z"/>
		</g>
		<g>
				<path d="M137.9,0.9l0,18.3c-0.1,0.7-0.6,0.8-0.7,0c-0.7-10.2-12.6-19.7-23.9-15.6c-13.4,4.8-15.2,19.6-13.8,31
						c0.6,4.5,1.8,8.6,4.9,12.5c3.1,3.9,7.4,6.5,12.6,6.9c8.5,0.7,16-3.2,20.7-9.7c0.1-0.2,0.5,0.1,0.5,0.2c-5.2,11.8-21.8,17-34.1,9.8
						C88,44.9,85.4,25.6,95.2,11.5c8.1-11.6,24.7-14.7,37.7-7.9c2,1,3.4-1.1,4.4-2.7L137.9,0.9z"/>
		</g>
		<path d="M94.1,53L71,0.6L48,52.9c-0.8,1.5-1.8,2.1-3.6,2.7v0.8l14.8,0v-0.9c-3.1-0.5-6.9-0.9-5.8-4.3l5.8-12.8l0,0h19.5l0,0
				L84.7,52c1.3,3.1-3.7,3.5-6,3.5v0.9l20.4,0v-0.9C97.9,55.5,95.2,55.5,94.1,53z M60.8,34.8l8-19.1l8.5,19.1H60.8z"/>
		<rect x="3.2" y="65.2" class="st0" width="158.8" height="5.4"/>
</g>
<g>
		<path class="st1" d="M5.9,84.9h2.8c1.7,0,2.3-0.2,2.4-1.8h0.4v4.3h-0.4c-0.2-1.6-0.7-1.8-2.4-1.8H5.9v4.5C5.9,90.9,6.1,91,7,91h2.9
				c1.8,0,2.5-0.8,3.6-2.4h0.4l-1.2,3.1H1.9v-0.3c2,0,2-0.5,2-2v-7.6c0-1.6,0-2-2-2v-0.3h10.7l0.2,2.7h-0.4c-0.4-1.9-1-2-2.9-2H5.9
				V84.9z"/>
		<path class="st1" d="M24.8,82.2c0.2-0.4,0.6-1.3,0.6-1.6c0-0.7-0.9-0.9-1.5-0.9v-0.3h4.3v0.3c-1.3,0.1-1.7,1-2.2,2L21.3,92h-0.4
				l-5.1-10.4c-0.5-1.1-0.8-1.8-2.3-1.9v-0.3h5.7v0.3c-0.7,0.1-1.6,0.1-1.6,0.9c0,0.5,0.4,1.2,0.6,1.6l3.4,7L24.8,82.2z"/>
		<path class="st1" d="M32.8,84.9h2.8c1.7,0,2.3-0.2,2.4-1.8h0.4v4.3H38c-0.2-1.6-0.7-1.8-2.4-1.8h-2.8v4.5c0,0.8,0.3,0.9,1.1,0.9
				h2.9c1.8,0,2.5-0.8,3.6-2.4h0.4l-1.2,3.1H28.9v-0.3c2,0,2-0.5,2-2v-7.6c0-1.6,0-2-2-2v-0.3h10.7l0.2,2.7h-0.4c-0.4-1.9-1-2-2.9-2
				h-3.6V84.9z"/>
		<path class="st1" d="M52,91.7l-4.7-5.8h-1.4v3.4c0,1.6,0,2,2,2v0.3h-5.9v-0.3c2,0,2-0.5,2-2v-7.6c0-1.6,0-2-2-2v-0.3h6
				c4.1,0,4.8,2.1,4.8,3.2c0,1.8-1.6,2.8-3.4,3.1l2.7,3.4c1,1.3,1.8,2.2,3.7,2.3v0.3H52z M45.8,85.3h0.5c2,0,4.1-0.6,4.1-2.7
				c0-1.5-1.1-2.6-2.8-2.6c-0.6,0-1.2,0.1-1.7,0.2V85.3z"/>
		<path class="st1" d="M72,82.2c0.2-0.4,0.6-1.3,0.6-1.6c0-0.7-0.9-0.9-1.5-0.9v-0.3h4.3v0.3c-1.3,0.1-1.7,1-2.2,2L68.4,92H68
				l-5.1-10.4c-0.5-1.1-0.8-1.8-2.3-1.9v-0.3h5.7v0.3c-0.7,0.1-1.6,0.1-1.6,0.9c0,0.5,0.4,1.2,0.6,1.6l3.4,7L72,82.2z"/>
		<path class="st1" d="M80.2,89.3c0,1.6,0,2,2,2v0.3h-5.9v-0.3c2,0,2-0.5,2-2v-7.6c0-1.6,0-2-2-2v-0.3h5.9v0.3c-2,0-2,0.5-2,2V89.3z"
				/>
		<path class="st1" d="M95.6,90.9c-1.5,0.7-3.1,1.1-4.8,1.1c-6.2,0-7.7-4.1-7.7-6.3c0-2.9,2.4-6.7,7.4-6.7c1,0,1.8,0.2,2.6,0.4
				c0.3,0.1,1,0.4,1.3,0.4c0.5,0,0.5-0.5,0.5-0.8h0.4l0.4,3.9h-0.4c-0.7-2.1-2.2-3.3-4.6-3.3c-3.5,0-5.1,2.8-5.1,5.6
				c0,3.6,2.2,6,5.4,6c0.9,0,2-0.2,2.8-0.7v-3.3c0-1.6,0-2-2-2V85h5.5v0.3c-1.3,0-1.6,0.4-1.6,1.7V90.9z"/>
		<path class="st1" d="M102.4,89.4c0,1.6,0,2,2,2v0.3h-5.9v-0.3c2,0,2-0.5,2-2v-7.6c0-1.6,0-2-2-2v-0.3h5.9v0.3c-2,0-2,0.5-2,2V89.4z
				"/>
		<path class="st1" d="M110.1,89.3c0,0.9,0,1.6,0.9,1.6h3.1c1.7,0,2.7-0.6,3.6-2.6l0.3,0.1l-1.2,3.4h-10.8v-0.3c2,0,2-0.5,2-2v-7.6
				c0-1.6,0-2-2-2v-0.3h6.3v0.3c-2.3,0-2.3,0.5-2.3,2.2V89.3z"/>
		<path class="st1" d="M121.7,87.6l-0.8,1.7c-0.2,0.3-0.5,0.9-0.5,1.3c0,0.7,0.8,0.8,1.6,0.8v0.3h-4.4v-0.3c1.1-0.1,1.5-0.6,2.2-1.9
				l5-10.4h0.4l4.7,10.1c0.5,1.1,0.9,2.2,2.5,2.2v0.3h-5.5v-0.3c0.9,0,1.4-0.2,1.4-0.8c0-0.4-0.3-1-0.5-1.4l-0.8-1.6H121.7z M124.4,82
				l-2.4,5h4.8L124.4,82z"/>
		<path class="st1" d="M136,89.4c0,1.6,0,2,2,2v0.3h-4.9v-0.3c2,0,2-0.5,2-2V81c-0.8-0.8-1.3-1.3-2.8-1.3v-0.3h3.8l8.5,9.2h0v-6.9
				c0-1.6,0-2-2-2v-0.3h4.9v0.3c-2,0-2,0.5-2,2V92h-0.4L136,82h0V89.4z"/>
		<path class="st1" d="M155.3,89.4c0,1.6,0,2,2,2v0.3h-5.9v-0.3c2,0,2-0.5,2-2v-9.2h-2.1c-1.7,0-2.3,0.9-2.4,2.1h-0.4l0.1-2.9h11.3
				l0.1,2.9h-0.4c-0.1-1.2-0.6-2.1-2.4-2.1h-2.1V89.4z"/>
</g>
</svg>
