<?xml version="1.0" encoding="utf-8"?>
<!-- Generator: Adobe Illustrator 22.0.1, SVG Export Plug-In . SVG Version: 6.00 Build 0)  -->
<svg version="1.1" id="Layer_1" xmlns="http://www.w3.org/2000/svg" xmlns:xlink="http://www.w3.org/1999/xlink" x="0px" y="0px"
	 viewBox="0 0 50 15.6" style="enable-background:new 0 0 50 15.6;" xml:space="preserve">
<style type="text/css">
	.st0{fill:#EC1B2E;}
	.st1{fill:#F2B705;}
</style>
<path class="st0" d="M34.8,12.1c-0.1-0.1-0.2-0.2-0.3-0.2c-0.2,0-0.3,0.1-0.4,0.2c-0.4,0.5-0.7,0.8-1,1c-0.3,0.2-0.6,0.3-1.1,0.3
	c-0.6,0-1-0.2-1.3-0.7c1.3-0.3,2.2-0.7,2.7-1.2c0.5-0.5,0.8-1.2,0.8-1.9c0-0.6-0.2-1.1-0.6-1.5c-0.4-0.4-0.9-0.5-1.5-0.5
	c-0.7,0-1.3,0.2-1.9,0.6c-0.5,0.4-1,0.9-1.3,1.5c-0.2,0.4-0.3,0.8-0.4,1.2c-0.1,0.1-0.3,0.1-0.4,0.1c-0.3,0-0.4-0.2-0.4-0.6
	c0-0.1,0-0.4,0.1-0.8c0.1-0.5,0.1-0.9,0.1-1c0-0.7-0.3-1-1-1c-0.3,0-0.7,0.1-1.2,0.4c-0.4,0.2-0.8,0.7-1.3,1.2
	c-0.4,0.6-0.8,1.3-1.2,2.2c0-0.5,0.1-0.9,0.2-1.2s0.1-0.7,0.3-1.1c0.2-0.6,0.2-1,0.2-1.1c0-0.1,0-0.2-0.1-0.3
	c-0.1-0.1-0.2-0.1-0.4-0.1c-0.4,0-0.7,0.1-0.9,0.2c-0.2,0.1-0.4,0.4-0.5,0.7c-0.4,1.1-0.6,2.4-0.6,3.6c-0.3,0.4-0.6,0.7-0.8,0.8
	c-0.3,0.3-0.6,0.4-0.9,0.4c-0.2,0-0.4-0.1-0.5-0.4c-0.1-0.3-0.2-0.7-0.3-1.3c1-1.7,1.8-3.3,2.3-4.9c0.6-1.6,0.9-3,0.9-4.2
	c0-0.8-0.2-1.5-0.5-1.9C21.6,0.2,21.2,0,20.7,0c-0.9,0-1.7,0.7-2.2,2.2c-0.6,1.5-0.9,3.2-1.2,5.3c-0.8,0.1-1.5,0.4-2.1,0.8
	c-0.6,0.5-1.1,1.1-1.5,1.8c-0.3,0.7-0.5,1.5-0.5,2.3c-0.2,0.2-0.4,0.4-0.5,0.6c-0.3,0.3-0.5,0.4-0.7,0.4c-0.1,0-0.2,0-0.3-0.1
	c-0.1-0.1-0.1-0.2-0.1-0.4c0-0.5,0.1-1.3,0.4-2.5c0.2-0.8,0.2-1.4,0.2-1.6c0-0.4-0.3-0.6-0.8-0.6c-0.2,0-0.5,0-0.7,0.1
	c-0.1-0.2-0.1-0.4-0.2-0.5c-0.1-0.1-0.2-0.1-0.5-0.1c-0.7,0-1.4,0.2-2.1,0.7S6.7,9.3,6.3,10c-0.4,0.8-0.6,1.6-0.6,2.4
	c-0.2,0.2-0.5,0.4-0.7,0.5c-0.5,0.3-1,0.4-1.4,0.4c-1.1,0-1.6-0.6-1.6-1.8c0-0.4,0.1-0.9,0.2-1.2c0.1-0.4,0.3-0.7,0.5-0.9
	c0.2-0.2,0.4-0.3,0.7-0.3c0.1,0,0.2,0,0.3,0.1c0.1,0.1,0.1,0.2,0.1,0.3c0,0.1,0,0.3-0.1,0.4c0,0,0,0.1,0,0.2c0,0.1,0,0.2,0,0.3
	c0,0.2,0.1,0.3,0.2,0.4C3.9,10.9,4.1,11,4.3,11c0.3,0,0.6-0.2,0.8-0.5c0.2-0.3,0.3-0.7,0.3-1.1c0-0.5-0.2-1-0.5-1.3
	C4.6,7.7,4.1,7.5,3.5,7.5c-0.6,0-1.2,0.2-1.7,0.5c-0.5,0.3-1,0.8-1.3,1.5C0.2,10.2,0,10.9,0,11.8c0,1,0.3,1.7,0.9,2.3
	C1.4,14.7,2.3,15,3.3,15c0.6,0,1.3-0.2,2-0.5c0.3-0.1,0.6-0.3,0.8-0.5c0.1,0.1,0.1,0.2,0.2,0.3C6.7,14.8,7.2,15,7.9,15
	c0.8,0,1.5-0.4,2.1-1.3c0.1,0.4,0.4,0.7,0.7,1c0.3,0.2,0.6,0.4,1,0.4c0.5,0,0.9-0.2,1.4-0.6c0.2-0.2,0.4-0.3,0.6-0.5
	c0.1,0.1,0.1,0.2,0.2,0.3c0.4,0.5,1,0.7,1.6,0.7c0.4,0,0.8-0.1,1.2-0.3c0.3-0.2,0.7-0.6,1.2-1.1c0.4,0.9,1,1.4,1.8,1.4
	c0.5,0,1-0.2,1.5-0.6c0.2-0.2,0.4-0.3,0.6-0.5c0,0.2,0.1,0.3,0.1,0.4c0.2,0.4,0.4,0.6,0.9,0.6c0.3,0,0.6-0.1,0.7-0.3
	c0.2-0.2,0.3-0.5,0.4-1c0.2-0.6,0.4-1.3,0.6-1.8c0.3-0.6,0.5-1.1,0.8-1.4c0.3-0.4,0.5-0.5,0.6-0.5C26,10,26,10,26,10.2
	c0,0.1,0,0.2,0,0.4c0,0.2,0,0.3,0,0.5c0,0.5,0.1,0.9,0.4,1.2c0.3,0.3,0.7,0.4,1.3,0.4c0.3,0,0.7-0.1,1-0.2c0.1,0.6,0.4,1.2,0.8,1.6
	c0.6,0.6,1.4,0.9,2.4,0.9c0.7,0,1.2-0.1,1.7-0.4c0.5-0.3,0.9-0.6,1.2-1.1c0.2-0.3,0.3-0.6,0.3-1C35,12.4,34.9,12.2,34.8,12.1z
	 M19.4,5.4c0.1-1.2,0.3-2.1,0.5-2.8c0.2-0.7,0.4-1.1,0.6-1.1c0.1,0,0.2,0.1,0.2,0.3c0.1,0.2,0.1,0.5,0.1,0.9c0,1.6-0.6,3.6-1.8,6.2
	C19.2,7.8,19.3,6.6,19.4,5.4z M9.6,11.9c-0.1,0.5-0.2,0.8-0.5,1.1c-0.2,0.3-0.4,0.4-0.7,0.4s-0.4-0.1-0.5-0.2
	c-0.1-0.2-0.2-0.4-0.2-0.7c0-0.6,0.1-1.2,0.3-1.7c0.2-0.5,0.5-1,0.9-1.3C9.3,9.2,9.7,9,10.2,9L9.6,11.9z M16.6,13.2
	c-0.2,0.2-0.4,0.2-0.6,0.2c-0.5,0-0.8-0.4-0.8-1.2c0-0.7,0.2-1.4,0.6-2c0.4-0.6,0.9-1,1.5-1.2c0,0.6,0,1,0,1.2
	c0,0.7,0.1,1.4,0.2,1.9C17,12.7,16.8,13,16.6,13.2z M30.5,11.4c0-0.6,0.1-1.2,0.4-1.7c0.3-0.5,0.6-0.7,1-0.7c0.2,0,0.3,0.1,0.5,0.2
	c0.1,0.1,0.2,0.3,0.2,0.5c0,0.4-0.2,0.7-0.5,1C31.6,11.1,31.1,11.3,30.5,11.4L30.5,11.4z"/>
<path class="st1" d="M47.8,7.9c0.2-0.2,0.4-0.4,0.5-0.7c0.1-0.2,0.1-0.4,0.1-0.6c0-0.1-0.1-0.3-0.1-0.3c-0.1-0.1-0.1-0.1-0.2-0.1
	c-0.1,0-0.2,0.1-0.3,0.2c-0.2,0.3-0.4,0.6-0.5,0.7c-0.2,0.2-0.4,0.2-0.7,0.3c-0.4,0-0.7-0.1-0.9-0.4c0.8-0.3,1.3-0.6,1.6-1
	c0.3-0.4,0.4-0.8,0.4-1.3c0-0.4-0.2-0.7-0.5-0.9c-0.3-0.2-0.6-0.3-1-0.2c-0.4,0.1-0.8,0.2-1.1,0.5c-0.1,0.1-0.2,0.2-0.2,0.3
	c-0.1-0.1-0.2-0.2-0.2-0.3c-0.3-0.3-0.7-0.4-1.1-0.5c-0.4,0-0.7,0-1,0.2c-0.3,0.2-0.4,0.5-0.5,0.9C42,5.2,42.1,5.6,42.4,6
	c0.3,0.4,0.8,0.7,1.6,1c-0.2,0.3-0.5,0.4-0.9,0.4c-0.3,0-0.5-0.1-0.7-0.3c-0.2-0.1-0.3-0.4-0.5-0.7c-0.1-0.1-0.2-0.2-0.3-0.2
	c-0.1,0-0.2,0-0.2,0.1c-0.1,0.1-0.1,0.2-0.1,0.3c0,0.2,0,0.5,0.1,0.6c0.1,0.3,0.3,0.5,0.5,0.7c-1.2,0.2-2.2,1.3-2.2,2.5V13
	c0,1.4,1.2,2.6,2.6,2.6h5c1.4,0,2.6-1.2,2.6-2.6v-2.5C50,9.2,49.1,8.1,47.8,7.9z M44.9,7.8C44.9,7.8,44.9,7.9,44.9,7.8L44.9,7.8
	C44.9,7.9,44.9,7.8,44.9,7.8z M45.7,5.1c0.1-0.3,0.3-0.5,0.6-0.5c0.1,0,0.2,0,0.3,0.1c0.1,0.1,0.1,0.2,0.1,0.3
	c0,0.2-0.1,0.5-0.3,0.7c-0.2,0.2-0.5,0.4-0.9,0.5l0,0C45.5,5.8,45.5,5.4,45.7,5.1z M43.4,5.7c-0.2-0.2-0.3-0.5-0.3-0.7
	c0-0.1,0.1-0.2,0.1-0.3c0.1-0.1,0.2-0.1,0.3-0.1c0.3,0,0.4,0.2,0.6,0.5c0.1,0.3,0.2,0.7,0.1,1.1l0,0C43.9,6.1,43.6,5.9,43.4,5.7z
	 M44.4,14.5h-2c-0.8,0-1.5-0.7-1.5-1.5v-0.7h3.4V14.5z M44.4,11.2h-3.4v-0.7c0-0.8,0.7-1.5,1.5-1.5h2V11.2z M48.9,13
	c0,0.8-0.7,1.5-1.5,1.5h-2v-2.2h3.4V13z M48.9,11.2h-3.4V9h2c0.8,0,1.5,0.7,1.5,1.5V11.2z"/>
</svg>
