<svg xmlns="http://www.w3.org/2000/svg" viewBox="0 0 49.8 17.2">
<path d="M47,4.1l-0.2,0c0.1,0,0.1-0.1,0.2-0.1c0.4-0.3,0.7-0.6,0.9-0.9c0.2-0.2,0.2-0.7,0-0.9c-0.1-0.2-0.4-0.1-0.5,0.1
	c-0.4,0.7-2,2.1-2.8,1c0.7-0.3,1.2-0.6,1.5-1c0.4-0.6,0.5-1.6-0.1-2.1c-0.6-0.5-1.5-0.2-2,0.3c-0.2,0.2-0.4,0.4-0.5,0.7
	c-0.2-0.2-0.4-0.4-0.6-0.5c-0.6-0.3-1.6-0.3-2,0.2c-0.5,0.6-0.2,1.6,0.4,2c0.4,0.3,0.9,0.5,1.7,0.6c-0.5,1.2-2.3,0.3-2.9-0.3
	C40,3,39.8,3,39.7,3.2c-0.1,0.3,0,0.7,0.2,0.9c0.3,0.3,0.6,0.5,1.1,0.7c0.1,0,0.2,0.1,0.2,0.1l-0.1,0c-1.2,0.3-2,1.6-1.9,2.7
	l0.3,2.6c0.2,1.4,1.5,2.4,2.9,2.3l5-0.6c1.4-0.2,2.4-1.5,2.3-2.9l-0.3-2.5C49.4,5.1,48.4,4.2,47,4.1z M44.5,2.5c0-0.4,0-0.7,0.1-1
	c0.1-0.3,0.5-0.7,0.8-0.4c0.3,0.2,0.1,0.7-0.1,0.9C45.2,2.2,44.9,2.4,44.5,2.5L44.5,2.5z M42.2,2.4c-0.3-0.2-0.6-0.6-0.3-0.9
	c0.2-0.3,0.7,0,0.9,0.2c0.2,0.3,0.3,0.6,0.4,1l0,0C42.8,2.6,42.5,2.5,42.2,2.4z M44,4.2C44,4.2,44,4.1,44,4.2c0.1-0.1,0.1,0,0.1,0
	c0.1,0.1,0.3,0.2,0.4,0.2l-0.9,0.1C43.7,4.4,43.9,4.3,44,4.2z M44.4,11.1l-1.9,0.2c-0.8,0.1-1.6-0.5-1.7-1.3l-0.1-0.7l3.4-0.4
	L44.4,11.1z M44,7.8l-3.4,0.4l-0.1-0.7C40.4,6.7,41,6,41.8,5.9l1.9-0.2L44,7.8z M47.4,10.7l-2,0.2l-0.3-2.2l3.5-0.4L48.8,9
	C48.9,9.8,48.2,10.6,47.4,10.7z M48.5,7.3l-3.5,0.4l-0.3-2.2l2-0.2c0.8-0.1,1.6,0.5,1.7,1.3L48.5,7.3z" fill="#f2b705"/>
<path d="M36.2,9.7c-0.2-0.3-0.6-0.1-0.8,0.1c-0.7,1.1-3.3,3.4-4.6,1.7c1.2-0.5,2-1,2.5-1.6c0.7-0.9,0.8-2.4,0-3.2
	c-1-1-2.6-0.6-3.5,0.2c-0.5,0.4-0.9,1-1.1,1.7c-0.1,0.4-0.2,0.8-0.2,1.3c-0.9,0.6-0.8-0.6-0.8-1.2c0-0.6,0.2-1.4-0.4-1.8
	c-0.6-0.4-1.4,0-1.9,0.4c-0.4,0.3-0.8,0.8-1.1,1.4c-0.4,0.6-0.7,1.4-0.9,2.4c0-0.5,0-0.9,0-1.2c0-0.3,0.1-0.7,0.1-1.1
	c0.1-0.4,0.3-1.1,0-1.4c-0.3-0.3-1.1,0-1.4,0.2C22,7.7,21.9,8,21.8,8.3c-0.2,1.2-0.3,2.4-0.1,3.7c-0.3,0.4-0.5,0.7-0.7,0.9
	c-1,1.2-1.7-0.1-1.9-1.1c0.8-1.8,1.3-3.5,1.7-5.2c0.4-1.7,1-4.7-0.3-6.1c-1.5-1.6-2.9,0.7-3.2,2C17,4,16.8,5.8,16.9,7.9
	c-0.8,0.2-1.4,0.5-2,1.1c-0.6,0.5-1,1.2-1.3,2c-0.3,0.7-0.3,1.5-0.3,2.3c-0.2,0.3-0.3,0.5-0.5,0.6c-0.2,0.2-0.7,0.7-1,0.4
	c-0.5-0.5-0.2-2.3-0.1-3c0.1-1.3,0.3-2.5-1.5-1.9C10.1,9.2,10,9,10,8.9c-0.6-0.5-2,0.5-2.5,0.9c-0.6,0.5-1,1.2-1.3,2
	c-0.3,0.8-0.4,1.6-0.3,2.5c-0.2,0.2-0.4,0.4-0.6,0.6c-1.1,0.8-2.6,0.9-3.1-0.6c-0.2-0.7-0.2-1.6,0.1-2.2c0.2-0.4,0.7-1.2,1.2-0.8
	c0.2,0.2,0.2,0.5,0.1,0.8c0,0,0,0.1,0,0.2c0,0.2,0,0.5,0.2,0.6c0.5,0.3,1,0,1.2-0.5c0.4-0.8,0.2-1.9-0.5-2.4
	c-0.9-0.7-2.3-0.3-3.1,0.4c-1.7,1.4-2,4.7-0.2,6.2c1.3,1,3.2,0.7,4.5-0.2c0.3-0.2,0.5-0.4,0.8-0.6c0.1,0.1,0.2,0.2,0.2,0.3
	c1.3,1.2,3,0.3,3.6-1.1c0.2,0.4,0.5,0.7,0.8,0.9c0.8,0.5,1.7,0.1,2.3-0.5c0.2-0.2,0.3-0.4,0.5-0.6c0.1,0.1,0.2,0.2,0.3,0.3
	c1.4,1.3,3,0.1,3.8-1.2c0.8,1.4,2.3,1.5,3.5,0.4c0.2-0.2,0.4-0.4,0.5-0.6c0.2,0.7,1.2,1.5,1.8,0.6c0.1-0.2,0.2-0.5,0.3-1.1
	c0.1-0.7,0.2-1.3,0.4-1.9c0.2-0.6,0.4-1.1,0.6-1.5c0.4-0.7,0.8-0.8,0.8,0.1c-0.1,1.7,1.5,2.3,2.9,1.5c0.2,0.6,0.5,1.1,1,1.5
	c1.4,1.1,3.6,0.7,4.9-0.3c0.7-0.5,1.2-1,1.5-1.5C36.5,10.9,36.5,10.1,36.2,9.7z M18.7,5.6c0-1,0-2,0.2-3c0.1-0.3,0.4-1.5,0.7-0.7
	c1,2.1-0.1,5.3-0.8,7.4C18.7,8,18.7,6.8,18.7,5.6z M9.6,13.3c-0.1,0.6-0.6,2.3-1.5,1.5C7.2,13.9,8,11.7,8.7,11
	c0.3-0.4,0.7-0.6,1.2-0.7L9.6,13.3z M16.8,13.7c-0.6,0.6-1.3,0.2-1.5-0.5c-0.2-0.7,0-1.6,0.3-2.3c0.3-0.6,0.7-1.1,1.3-1.3
	c0.1,1.1,0.2,2.1,0.5,3.1C17.2,13.2,17,13.5,16.8,13.7z M30.5,10.3c-0.1-0.6,0-1.2,0.2-1.7c0.2-0.5,0.8-1.1,1.4-0.7
	c0.5,0.4,0.2,1.2-0.2,1.6C31.6,9.8,31.1,10.1,30.5,10.3L30.5,10.3z" fill="#ec1b2e"/>
</svg>