<svg xmlns="http://www.w3.org/2000/svg" viewBox="0 0 24 24">
  <path d="M23.5 10c-.6-.3-1.8-.5-2.8-.3-.1-.9-.6-1.7-1.5-2.4l-.5-.3-.4.5c-.5.7-.7 1.6-.6 2.5 0 .3.1.9.5 1.4-.3.2-1 .4-1.8.4H.1v.2c-.2.9-.2 3.7 1.7 5.9 1.4 1.6 3.5 2.5 6.2 2.5 5.9 0 10.3-2.7 12.3-7.7.8 0 2.5 0 3.4-1.7 0 0 .1-.1.2-.5l.1-.2-.5-.3zM10.6 3.7h2.5V6h-2.5z"/>
  <path d="M10.6 6.4h2.5v2.3h-2.5zm-2.9 0h2.5v2.3H7.7zm-2.9 0h2.5v2.3H4.8zm-3 2.7h2.5v2.3H1.8zm3 0h2.5v2.3H4.8zm2.9 0h2.5v2.3H7.7zm2.9 0h2.5v2.3h-2.5zm3 0h2.5v2.3h-2.5z"/>
</svg>
