<svg xmlns="http://www.w3.org/2000/svg" viewBox="0 0 24 24">
<path d="M23.5,10.9L13.1,0.5c-0.6-0.6-1.6-0.6-2.2,0L8.7,2.6l2.8,2.8c0.7-0.2,1.4-0.1,1.9,0.4c0.5,0.5,0.7,1.2,0.4,1.9l2.7,2.7
	c0.7-0.2,1.4-0.1,1.9,0.4c1.6,1.7-0.9,4.2-2.6,2.6c-0.5-0.5-0.7-1.3-0.4-2l-2.5-2.5v6.5c0.9,0.4,1.3,1.6,0.8,2.5
	c-0.5,1.1-2.1,1.4-3,0.5c-0.7-0.7-0.7-1.9,0-2.6c0.2-0.2,0.4-0.3,0.6-0.4V8.8c-0.9-0.4-1.4-1.5-1-2.4c0,0,0,0,0,0L7.6,3.7l-7.2,7.2
	c-0.6,0.6-0.6,1.6,0,2.2l10.5,10.5c0.6,0.6,1.6,0.6,2.2,0l10.4-10.4C24.2,12.5,24.2,11.5,23.5,10.9z"/>
</svg>
