<svg xmlns="http://www.w3.org/2000/svg" viewBox="0 0 24 24">
  <path d="M12 .3C6.3.3 1.3 4.4.2 10c-1.1 5.9 2.3 11.8 8 13.7 1.3.2.8-2.2.8-2.8-3 .6-3.8-.7-4-1.4-.1-.3-.7-1.4-1.2-1.7-.4-.2-1-.8 0-.8.9 0 1.6.9 1.8 1.2 1.1 1.8 2.8 1.3 3.5 1 .1-.8.4-1.3.8-1.6-1.7-.2-3.5-.7-4.5-2.3-1.4-2-1.4-5.1.2-6.9-.1-.3-.5-1.5.1-3.1 0 0 1-.3 3.3 1.2 1.9-.5 4.1-.5 6 0 2.3-1.6 3.3-1.2 3.3-1.2.7 1.7.2 2.9.1 3.2 1.6 1.8 1.6 4.9.3 6.9-1 1.5-2.8 2.1-4.6 2.3 1 .9.8 2.5.8 3.7 0 .7-.4 2.6.8 2.3 5-1.7 8.3-6.2 8.3-11.4 0-6.6-5.4-12-12-12z"/>
</svg>
