<svg xmlns="http://www.w3.org/2000/svg" viewBox="0 0 24 24">
  <path d="M22.5 0l-3.2 9.4L16.1 3 13 9.3 9.8 0h12.7zM12.2 9.9c-1 0-1.9.8-1.9 1.9 0 1 .8 1.9 1.9 1.9s1.9-.8 1.9-1.9c0-1-.8-1.9-1.9-1.9zm8 0c-1 0-1.9.8-1.9 1.9 0 1 .8 1.9 1.9 1.9 1 0 1.9-.8 1.9-1.9 0-1-.8-1.9-1.9-1.9zm-16 .1c-1 0-1.9.8-1.9 1.9 0 1 .8 1.9 1.9 1.9 1 0 1.9-.8 1.9-1.9 0-1.1-.9-1.9-1.9-1.9zm16 4.9c-1.5 0-2.8-1.2-3-2.7h-1.9c-.2 1.5-1.5 2.7-3 2.7h-.5c-.5.8-1.1 1.5-1.8 2.2-1.1 1-2.3 1.8-3.7 2.3l-.2.1-.2-.1c-1.7-.9-2.5-2.7-2-4.4-.3 0-.5-.1-.8-.2-.1 0-.2.2-.3.4-.5 1-1 2.1-1.2 3.3-.2 1.3-.3 3.5 1.5 4.8 2.4 1.7 5 .4 8-1.1 1.5-.7 3-1.5 4.6-1.9l1.8-.3c1.1-.2 2.2-.3 3-.8.9-.5 1.6-1.5 1.8-2.5.1-.8 0-1.6-.3-2.3-.5.3-1.1.5-1.8.5z"/>
</svg>