<svg xmlns="http://www.w3.org/2000/svg" viewBox="0 0 24 24">
  <path d="M18.6 8.6H5.4c-.3 0-.7.3-.7.7 0 2.4.3 10.5 3.8 14.5.2.1.4.2.6.2H15c.2 0 .3-.1.5-.2 3.5-3.9 3.8-12.1 3.8-14.5 0-.4-.3-.7-.7-.7zm-3.9 13.2c-.2.1-.3.2-.6.2H10c-.2 0-.3-.1-.5-.2-2.4-2.8-2.7-8.4-2.7-10.4 0-.3.3-.7.7-.7h9.2c.3 0 .7.3.7.7 0 2-.4 7.5-2.7 10.4zM13.3 7.2s2.5-1.5 1-4.1c-.9-1.4-1.3-2.6-1-3.1-.9 1.1-2.4 2.3-.8 4.8.6.6.9 2 .8 2.4zm-2.8.2s1.7-1 .6-2.8c-.6-.9-.9-1.7-.6-2-.6.7-1.6 1.5-.5 3.3.4.3.5 1.2.5 1.5zm5.8 8.1c-.3 1.9-.8 4-2 5.4-.1.1-.3.2-.4.2h-3.5c-.1 0-.3-.1-.4-.2-.8-1-1.4-2.4-1.7-3.9 0 0 4 .6 6.3-.3 1.6-.6 1.7-1.2 1.7-1.2z"/>
</svg>