<svg xmlns="http://www.w3.org/2000/svg" viewBox="0 0 24 24">
  <path d="M22.8 2.9c-.5-.5-1.1-1-1.6-1.6-.5-.5-1-1.1-1.8-1.3H4.6c-.7.3-1.7 1.2-1.7 1.2L1.2 3S.2 4 0 4.7v14.5c.2.8.7 1.3 1.2 1.8l2.1 2.1c.5.6 1.1.9 1.9.9h13.6c.7 0 1.3-.2 1.8-.7l2.1-2.1c.6-.5 1.1-1.1 1.3-1.8V5c-.2-1-.7-1.6-1.2-2.1zm-1.3 15.4c0 .3-.2.7-.4 1-.5.6-1.2 1.2-1.7 1.8-.3.3-.7.4-1.1.4H5.8c-.4 0-.7-.1-1-.4L3 19.3c-.2-.2-.4-.6-.4-1V5.8c0-.3.2-.7.4-.9.6-.7 1.2-1.3 1.9-1.9.3-.3.5-.5.8-.5h12.6c.3 0 .7.2.9.4.7.6 1.3 1.2 1.9 1.9.2.2.4.6.4 1v12.5zm-9.4-1.1H6.5c-.8 0-1.4-.5-1.4-1.2 0-.8.5-1.3 1.4-1.3h11.1c.8 0 1.4.5 1.4 1.2 0 .8-.5 1.2-1.4 1.2-1.8.1-3.7.1-5.5.1zm-.3-7.1c0 .7-.5 1.3-1.2 1.4-.7 0-1.2-.5-1.3-1.2-.1-.6-.4-1-.9-1s-.8.4-.9 1c-.1.8-.6 1.3-1.3 1.2-.7 0-1.2-.6-1.2-1.3 0-1.8 1.5-3.3 3.4-3.3 1.8-.1 3.3 1.4 3.4 3.2zm3 1.4c-.6 0-1.1-.3-1.3-.8s-.1-1.1.4-1.4l3-2.1c.5-.3 1.3-.1 1.6.4.4.5.3 1.3-.3 1.7-1 .7-2 1.3-3 2 0 .1-.3.2-.4.2z"/>
</svg>