<svg xmlns="http://www.w3.org/2000/svg" viewBox="0 0 24 24">
  <path d="M9.9 12.7l-1.9.6c-.3-.8-.8-1.2-1.6-1.2-.9 0-1.3.2-1.3.8 0 .2.1.4.2.6.2.2.5.3 1.1.4 1 .2 1.7.4 2.1.7.5.2.8.5 1.1 1 .3.5.5 1 .5 1.5 0 .9-.3 1.6-1 2.2-.7.6-1.6.9-2.9.8-1 0-1.8-.3-2.5-.7-.7-.5-1.1-1.1-1.4-2l2.2-.4c.2.9.9 1.4 1.9 1.4.5 0 .9-.1 1.1-.3.3-.2.4-.4.4-.7 0-.3-.1-.5-.3-.7-.2-.2-.7-.3-1.3-.5-1.2-.3-2.1-.7-2.6-1.1-.5-.5-.8-1.1-.8-1.9 0-.8.3-1.5.9-2.1.6-.6 1.5-.8 2.5-.8 1.9.1 3.1.9 3.6 2.4zm4.3 6.2c-.4 0-.7-.1-1-.4-.3-.3-.4-.6-.4-1.1v-.3l4.5.1c0-1.4-.3-2.4-1-3.1-.6-.7-1.4-1-2.3-1-1 0-1.8.3-2.5 1-.6.7-1 1.6-1 2.7 0 .8.2 1.4.5 2 .3.5.7 1 1.2 1.3.5.3 1.1.5 1.8.5 1.6.1 2.7-.7 3.2-2.3l-1.9-.2c0 .5-.4.9-1.1.8zm0-4.5c.7 0 1.1.5 1.2 1.5l-2.5-.1c.1-.9.5-1.4 1.3-1.4zM24 4.3l-1.3-2.5-.9.8c-.9-1-2.3-1.7-3.8-1.8L5 .3C3.6.3 2.2.8 1.3 1.7.5 2.5 0 3.6 0 4.8v13.8c0 2.5 2.2 4.6 5 4.7l13 .4h.2c1.3 0 2.6-.5 3.5-1.4.9-.8 1.3-1.9 1.3-3.1v-14l1-.9zm-3.3 14.9c0 .7-.3 1.2-.6 1.4-.5.5-1.2.8-2 .7L5 21c-1.5 0-2.7-1.1-2.7-2.4V4.8c0-.7.3-1.2.6-1.4.5-.5 1.2-.7 1.9-.7h.1l13 .4c.9 0 1.6.4 2.1 1l-5.2 4.4-2.7-3.1-1.5 1.9 3.9 4.9 6.1-5v12z"/>
</svg>