<svg xmlns="http://www.w3.org/2000/svg" viewBox="0 0 24 24">
  <path d="M22.7 15.2c-1.8 1.8-4.6 1.8-6.4 0s-1.8-4.6 0-6.4 4.6-1.8 6.4 0 1.7 4.6 0 6.4zm-12.2 7.3c-.7 0-1.4-.3-1.9-.8s-.8-1.1-.8-1.9c0-1.3.9-2.4 2.2-2.6v-2.7c-.5-.1-1-.3-1.4-.7-.4-.3-.6-.8-.7-1.4H5.2c-.2 1.2-1.3 2.2-2.6 2.2-.7 0-1.4-.3-1.9-.8-.4-.4-.7-1.1-.7-1.8 0-1.4 1.2-2.6 2.6-2.6.7 0 1.4.3 1.9.8.4.4.6.9.7 1.4h2.7c.2-1.1 1-2 2.1-2.1V6.8c-.5-.2-1-.4-1.4-.8-.5-.5-.7-1.1-.7-1.9 0-1.4 1.2-2.6 2.6-2.6.7 0 1.4.3 1.9.8s.8 1.1.8 1.9c0 1.3-.9 2.4-2.2 2.6v2.7c.5.1 1 .3 1.4.7.5.5.8 1.1.8 1.9 0 1.3-.9 2.4-2.2 2.6v2.7c.5.1 1 .3 1.4.7.5.5.8 1.1.8 1.9-.1 1.3-1.3 2.5-2.7 2.5zm0-16.6c1 0 1.7-.8 1.7-1.7 0-.5-.2-.9-.5-1.2s-.8-.5-1.2-.5c-1 0-1.7.8-1.7 1.7 0 .5.2.9.5 1.2.3.3.7.5 1.2.5zM4.4 12c0-.5-.2-.9-.5-1.2s-.8-.5-1.2-.5c-1 0-1.7.8-1.7 1.7 0 .5.2.9.5 1.2s.8.5 1.2.5c.9 0 1.7-.7 1.7-1.7zm4.8 1.2c.3.3.8.5 1.2.5 1 0 1.7-.8 1.7-1.7 0-.5-.2-.9-.5-1.2s-.8-.5-1.2-.5c-1 0-1.7.8-1.7 1.7 0 .5.2.9.5 1.2zm3 6.7c0-.5-.2-.9-.5-1.2-.3-.3-.8-.5-1.2-.5-1 0-1.7.8-1.7 1.7 0 .5.2.9.5 1.2s.8.5 1.2.5c.9 0 1.7-.8 1.7-1.7z"/>
</svg>